<mxfile host="app.diagrams.net" modified="2020-03-22T14:41:48.507Z" agent="Mozilla/5.0 (Windows NT 10.0; Win64; x64) AppleWebKit/537.36 (KHTML, like Gecko) Chrome/80.0.3987.149 Safari/537.36" etag="KFFNiZM3ZD_3-wm5DmtW" version="12.8.8" type="github">
  <diagram id="CRHzopXh2lfl-VDIXYke" name="Page-1">
    <mxGraphModel dx="2113" dy="1148" grid="1" gridSize="10" guides="1" tooltips="1" connect="1" arrows="1" fold="1" page="1" pageScale="1" pageWidth="827" pageHeight="1169" math="0" shadow="0">
      <root>
        <mxCell id="0" />
        <mxCell id="1" parent="0" />
        <mxCell id="exXBrJ6WtaJ541hTLERB-1" value="hasEmployed" style="swimlane;fontStyle=0;childLayout=stackLayout;horizontal=1;startSize=26;fillColor=#e0e0e0;horizontalStack=0;resizeParent=1;resizeParentMax=0;resizeLast=0;collapsible=1;marginBottom=0;swimlaneFillColor=#ffffff;align=center;fontSize=14;" vertex="1" parent="1">
          <mxGeometry x="270" y="267" width="190" height="112" as="geometry" />
        </mxCell>
        <mxCell id="exXBrJ6WtaJ541hTLERB-2" value="companyId" style="shape=partialRectangle;top=0;left=0;right=0;bottom=0;align=left;verticalAlign=middle;fillColor=none;spacingLeft=60;spacingRight=4;overflow=hidden;rotatable=0;points=[[0,0.5],[1,0.5]];portConstraint=eastwest;dropTarget=0;fontStyle=5;fontSize=12;" vertex="1" parent="exXBrJ6WtaJ541hTLERB-1">
          <mxGeometry y="26" width="190" height="30" as="geometry" />
        </mxCell>
        <mxCell id="exXBrJ6WtaJ541hTLERB-3" value="FK" style="shape=partialRectangle;fontStyle=1;top=0;left=0;bottom=0;fillColor=none;align=left;verticalAlign=middle;spacingLeft=4;spacingRight=4;overflow=hidden;rotatable=0;points=[];portConstraint=eastwest;part=1;fontSize=12;" vertex="1" connectable="0" parent="exXBrJ6WtaJ541hTLERB-2">
          <mxGeometry width="56" height="30" as="geometry" />
        </mxCell>
        <mxCell id="exXBrJ6WtaJ541hTLERB-4" value="employeeId" style="shape=partialRectangle;top=0;left=0;right=0;bottom=1;align=left;verticalAlign=middle;fillColor=none;spacingLeft=60;spacingRight=4;overflow=hidden;rotatable=0;points=[[0,0.5],[1,0.5]];portConstraint=eastwest;dropTarget=0;fontStyle=5;fontSize=12;" vertex="1" parent="exXBrJ6WtaJ541hTLERB-1">
          <mxGeometry y="56" width="190" height="30" as="geometry" />
        </mxCell>
        <mxCell id="exXBrJ6WtaJ541hTLERB-5" value="FK" style="shape=partialRectangle;fontStyle=1;top=0;left=0;bottom=0;fillColor=none;align=left;verticalAlign=middle;spacingLeft=4;spacingRight=4;overflow=hidden;rotatable=0;points=[];portConstraint=eastwest;part=1;fontSize=12;" vertex="1" connectable="0" parent="exXBrJ6WtaJ541hTLERB-4">
          <mxGeometry width="56" height="30" as="geometry" />
        </mxCell>
        <mxCell id="exXBrJ6WtaJ541hTLERB-6" value="dateOfEmployment" style="shape=partialRectangle;top=0;left=0;right=0;bottom=0;align=left;verticalAlign=top;fillColor=none;spacingLeft=60;spacingRight=4;overflow=hidden;rotatable=0;points=[[0,0.5],[1,0.5]];portConstraint=eastwest;dropTarget=0;fontSize=12;" vertex="1" parent="exXBrJ6WtaJ541hTLERB-1">
          <mxGeometry y="86" width="190" height="26" as="geometry" />
        </mxCell>
        <mxCell id="exXBrJ6WtaJ541hTLERB-7" value="" style="shape=partialRectangle;top=0;left=0;bottom=0;fillColor=none;align=left;verticalAlign=top;spacingLeft=4;spacingRight=4;overflow=hidden;rotatable=0;points=[];portConstraint=eastwest;part=1;fontSize=12;" vertex="1" connectable="0" parent="exXBrJ6WtaJ541hTLERB-6">
          <mxGeometry width="56" height="26" as="geometry" />
        </mxCell>
        <mxCell id="exXBrJ6WtaJ541hTLERB-8" value="Company" style="swimlane;fontStyle=0;childLayout=stackLayout;horizontal=1;startSize=26;fillColor=#e0e0e0;horizontalStack=0;resizeParent=1;resizeParentMax=0;resizeLast=0;collapsible=1;marginBottom=0;swimlaneFillColor=#ffffff;align=center;fontSize=14;" vertex="1" parent="1">
          <mxGeometry y="218" width="160" height="238" as="geometry" />
        </mxCell>
        <mxCell id="exXBrJ6WtaJ541hTLERB-9" value="companyId" style="shape=partialRectangle;top=0;left=0;right=0;bottom=1;align=left;verticalAlign=middle;fillColor=none;spacingLeft=34;spacingRight=4;overflow=hidden;rotatable=0;points=[[0,0.5],[1,0.5]];portConstraint=eastwest;dropTarget=0;fontStyle=5;fontSize=12;" vertex="1" parent="exXBrJ6WtaJ541hTLERB-8">
          <mxGeometry y="26" width="160" height="30" as="geometry" />
        </mxCell>
        <mxCell id="exXBrJ6WtaJ541hTLERB-10" value="PK" style="shape=partialRectangle;top=0;left=0;bottom=0;fillColor=none;align=left;verticalAlign=middle;spacingLeft=4;spacingRight=4;overflow=hidden;rotatable=0;points=[];portConstraint=eastwest;part=1;fontSize=12;" vertex="1" connectable="0" parent="exXBrJ6WtaJ541hTLERB-9">
          <mxGeometry width="30" height="30" as="geometry" />
        </mxCell>
        <mxCell id="exXBrJ6WtaJ541hTLERB-11" value="name" style="shape=partialRectangle;top=0;left=0;right=0;bottom=0;align=left;verticalAlign=top;fillColor=none;spacingLeft=34;spacingRight=4;overflow=hidden;rotatable=0;points=[[0,0.5],[1,0.5]];portConstraint=eastwest;dropTarget=0;fontSize=12;" vertex="1" parent="exXBrJ6WtaJ541hTLERB-8">
          <mxGeometry y="56" width="160" height="26" as="geometry" />
        </mxCell>
        <mxCell id="exXBrJ6WtaJ541hTLERB-12" value="" style="shape=partialRectangle;top=0;left=0;bottom=0;fillColor=none;align=left;verticalAlign=top;spacingLeft=4;spacingRight=4;overflow=hidden;rotatable=0;points=[];portConstraint=eastwest;part=1;fontSize=12;" vertex="1" connectable="0" parent="exXBrJ6WtaJ541hTLERB-11">
          <mxGeometry width="30" height="26" as="geometry" />
        </mxCell>
        <mxCell id="exXBrJ6WtaJ541hTLERB-13" value="webpage" style="shape=partialRectangle;top=0;left=0;right=0;bottom=0;align=left;verticalAlign=top;fillColor=none;spacingLeft=34;spacingRight=4;overflow=hidden;rotatable=0;points=[[0,0.5],[1,0.5]];portConstraint=eastwest;dropTarget=0;fontSize=12;" vertex="1" parent="exXBrJ6WtaJ541hTLERB-8">
          <mxGeometry y="82" width="160" height="26" as="geometry" />
        </mxCell>
        <mxCell id="exXBrJ6WtaJ541hTLERB-14" value="" style="shape=partialRectangle;top=0;left=0;bottom=0;fillColor=none;align=left;verticalAlign=top;spacingLeft=4;spacingRight=4;overflow=hidden;rotatable=0;points=[];portConstraint=eastwest;part=1;fontSize=12;" vertex="1" connectable="0" parent="exXBrJ6WtaJ541hTLERB-13">
          <mxGeometry width="30" height="26" as="geometry" />
        </mxCell>
        <mxCell id="exXBrJ6WtaJ541hTLERB-15" value="address" style="shape=partialRectangle;top=0;left=0;right=0;bottom=0;align=left;verticalAlign=top;fillColor=none;spacingLeft=34;spacingRight=4;overflow=hidden;rotatable=0;points=[[0,0.5],[1,0.5]];portConstraint=eastwest;dropTarget=0;fontSize=12;" vertex="1" parent="exXBrJ6WtaJ541hTLERB-8">
          <mxGeometry y="108" width="160" height="26" as="geometry" />
        </mxCell>
        <mxCell id="exXBrJ6WtaJ541hTLERB-16" value="" style="shape=partialRectangle;top=0;left=0;bottom=0;fillColor=none;align=left;verticalAlign=top;spacingLeft=4;spacingRight=4;overflow=hidden;rotatable=0;points=[];portConstraint=eastwest;part=1;fontSize=12;" vertex="1" connectable="0" parent="exXBrJ6WtaJ541hTLERB-15">
          <mxGeometry width="30" height="26" as="geometry" />
        </mxCell>
        <mxCell id="exXBrJ6WtaJ541hTLERB-17" value="city" style="shape=partialRectangle;top=0;left=0;right=0;bottom=0;align=left;verticalAlign=top;fillColor=none;spacingLeft=34;spacingRight=4;overflow=hidden;rotatable=0;points=[[0,0.5],[1,0.5]];portConstraint=eastwest;dropTarget=0;fontSize=12;" vertex="1" parent="exXBrJ6WtaJ541hTLERB-8">
          <mxGeometry y="134" width="160" height="26" as="geometry" />
        </mxCell>
        <mxCell id="exXBrJ6WtaJ541hTLERB-18" value="" style="shape=partialRectangle;top=0;left=0;bottom=0;fillColor=none;align=left;verticalAlign=top;spacingLeft=4;spacingRight=4;overflow=hidden;rotatable=0;points=[];portConstraint=eastwest;part=1;fontSize=12;" vertex="1" connectable="0" parent="exXBrJ6WtaJ541hTLERB-17">
          <mxGeometry width="30" height="26" as="geometry" />
        </mxCell>
        <mxCell id="exXBrJ6WtaJ541hTLERB-19" value="postalNumber" style="shape=partialRectangle;top=0;left=0;right=0;bottom=0;align=left;verticalAlign=top;fillColor=none;spacingLeft=34;spacingRight=4;overflow=hidden;rotatable=0;points=[[0,0.5],[1,0.5]];portConstraint=eastwest;dropTarget=0;fontSize=12;" vertex="1" parent="exXBrJ6WtaJ541hTLERB-8">
          <mxGeometry y="160" width="160" height="26" as="geometry" />
        </mxCell>
        <mxCell id="exXBrJ6WtaJ541hTLERB-20" value="" style="shape=partialRectangle;top=0;left=0;bottom=0;fillColor=none;align=left;verticalAlign=top;spacingLeft=4;spacingRight=4;overflow=hidden;rotatable=0;points=[];portConstraint=eastwest;part=1;fontSize=12;" vertex="1" connectable="0" parent="exXBrJ6WtaJ541hTLERB-19">
          <mxGeometry width="30" height="26" as="geometry" />
        </mxCell>
        <mxCell id="exXBrJ6WtaJ541hTLERB-21" value="phoneNumber" style="shape=partialRectangle;top=0;left=0;right=0;bottom=0;align=left;verticalAlign=top;fillColor=none;spacingLeft=34;spacingRight=4;overflow=hidden;rotatable=0;points=[[0,0.5],[1,0.5]];portConstraint=eastwest;dropTarget=0;fontSize=12;" vertex="1" parent="exXBrJ6WtaJ541hTLERB-8">
          <mxGeometry y="186" width="160" height="26" as="geometry" />
        </mxCell>
        <mxCell id="exXBrJ6WtaJ541hTLERB-22" value="" style="shape=partialRectangle;top=0;left=0;bottom=0;fillColor=none;align=left;verticalAlign=top;spacingLeft=4;spacingRight=4;overflow=hidden;rotatable=0;points=[];portConstraint=eastwest;part=1;fontSize=12;" vertex="1" connectable="0" parent="exXBrJ6WtaJ541hTLERB-21">
          <mxGeometry width="30" height="26" as="geometry" />
        </mxCell>
        <mxCell id="exXBrJ6WtaJ541hTLERB-23" value="eMail" style="shape=partialRectangle;top=0;left=0;right=0;bottom=0;align=left;verticalAlign=top;fillColor=none;spacingLeft=34;spacingRight=4;overflow=hidden;rotatable=0;points=[[0,0.5],[1,0.5]];portConstraint=eastwest;dropTarget=0;fontSize=12;" vertex="1" parent="exXBrJ6WtaJ541hTLERB-8">
          <mxGeometry y="212" width="160" height="26" as="geometry" />
        </mxCell>
        <mxCell id="exXBrJ6WtaJ541hTLERB-24" value="" style="shape=partialRectangle;top=0;left=0;bottom=0;fillColor=none;align=left;verticalAlign=top;spacingLeft=4;spacingRight=4;overflow=hidden;rotatable=0;points=[];portConstraint=eastwest;part=1;fontSize=12;" vertex="1" connectable="0" parent="exXBrJ6WtaJ541hTLERB-23">
          <mxGeometry width="30" height="26" as="geometry" />
        </mxCell>
        <mxCell id="exXBrJ6WtaJ541hTLERB-25" value="Employees" style="swimlane;fontStyle=0;childLayout=stackLayout;horizontal=1;startSize=26;fillColor=#e0e0e0;horizontalStack=0;resizeParent=1;resizeParentMax=0;resizeLast=0;collapsible=1;marginBottom=0;swimlaneFillColor=#ffffff;align=center;fontSize=14;" vertex="1" parent="1">
          <mxGeometry x="530" y="200" width="160" height="242" as="geometry" />
        </mxCell>
        <mxCell id="exXBrJ6WtaJ541hTLERB-26" value="employeeId" style="shape=partialRectangle;top=0;left=0;right=0;bottom=1;align=left;verticalAlign=middle;fillColor=none;spacingLeft=34;spacingRight=4;overflow=hidden;rotatable=0;points=[[0,0.5],[1,0.5]];portConstraint=eastwest;dropTarget=0;fontStyle=5;fontSize=12;" vertex="1" parent="exXBrJ6WtaJ541hTLERB-25">
          <mxGeometry y="26" width="160" height="30" as="geometry" />
        </mxCell>
        <mxCell id="exXBrJ6WtaJ541hTLERB-27" value="PK" style="shape=partialRectangle;top=0;left=0;bottom=0;fillColor=none;align=left;verticalAlign=middle;spacingLeft=4;spacingRight=4;overflow=hidden;rotatable=0;points=[];portConstraint=eastwest;part=1;fontSize=12;" vertex="1" connectable="0" parent="exXBrJ6WtaJ541hTLERB-26">
          <mxGeometry width="30" height="30" as="geometry" />
        </mxCell>
        <mxCell id="exXBrJ6WtaJ541hTLERB-28" value="roleId" style="shape=partialRectangle;top=0;left=0;right=0;bottom=1;align=left;verticalAlign=middle;fillColor=none;spacingLeft=34;spacingRight=4;overflow=hidden;rotatable=0;points=[[0,0.5],[1,0.5]];portConstraint=eastwest;dropTarget=0;fontStyle=5;fontSize=12;" vertex="1" parent="exXBrJ6WtaJ541hTLERB-25">
          <mxGeometry y="56" width="160" height="30" as="geometry" />
        </mxCell>
        <mxCell id="exXBrJ6WtaJ541hTLERB-29" value="FK" style="shape=partialRectangle;top=0;left=0;bottom=0;fillColor=none;align=left;verticalAlign=middle;spacingLeft=4;spacingRight=4;overflow=hidden;rotatable=0;points=[];portConstraint=eastwest;part=1;fontSize=12;" vertex="1" connectable="0" parent="exXBrJ6WtaJ541hTLERB-28">
          <mxGeometry width="30" height="30" as="geometry" />
        </mxCell>
        <mxCell id="exXBrJ6WtaJ541hTLERB-30" value="firstName" style="shape=partialRectangle;top=0;left=0;right=0;bottom=0;align=left;verticalAlign=top;fillColor=none;spacingLeft=34;spacingRight=4;overflow=hidden;rotatable=0;points=[[0,0.5],[1,0.5]];portConstraint=eastwest;dropTarget=0;fontSize=12;" vertex="1" parent="exXBrJ6WtaJ541hTLERB-25">
          <mxGeometry y="86" width="160" height="26" as="geometry" />
        </mxCell>
        <mxCell id="exXBrJ6WtaJ541hTLERB-31" value="" style="shape=partialRectangle;top=0;left=0;bottom=0;fillColor=none;align=left;verticalAlign=top;spacingLeft=4;spacingRight=4;overflow=hidden;rotatable=0;points=[];portConstraint=eastwest;part=1;fontSize=12;" vertex="1" connectable="0" parent="exXBrJ6WtaJ541hTLERB-30">
          <mxGeometry width="30" height="26" as="geometry" />
        </mxCell>
        <mxCell id="exXBrJ6WtaJ541hTLERB-32" value="lastName" style="shape=partialRectangle;top=0;left=0;right=0;bottom=0;align=left;verticalAlign=top;fillColor=none;spacingLeft=34;spacingRight=4;overflow=hidden;rotatable=0;points=[[0,0.5],[1,0.5]];portConstraint=eastwest;dropTarget=0;fontSize=12;" vertex="1" parent="exXBrJ6WtaJ541hTLERB-25">
          <mxGeometry y="112" width="160" height="26" as="geometry" />
        </mxCell>
        <mxCell id="exXBrJ6WtaJ541hTLERB-33" value="" style="shape=partialRectangle;top=0;left=0;bottom=0;fillColor=none;align=left;verticalAlign=top;spacingLeft=4;spacingRight=4;overflow=hidden;rotatable=0;points=[];portConstraint=eastwest;part=1;fontSize=12;" vertex="1" connectable="0" parent="exXBrJ6WtaJ541hTLERB-32">
          <mxGeometry width="30" height="26" as="geometry" />
        </mxCell>
        <mxCell id="exXBrJ6WtaJ541hTLERB-34" value="birthdate" style="shape=partialRectangle;top=0;left=0;right=0;bottom=0;align=left;verticalAlign=top;fillColor=none;spacingLeft=34;spacingRight=4;overflow=hidden;rotatable=0;points=[[0,0.5],[1,0.5]];portConstraint=eastwest;dropTarget=0;fontSize=12;" vertex="1" parent="exXBrJ6WtaJ541hTLERB-25">
          <mxGeometry y="138" width="160" height="26" as="geometry" />
        </mxCell>
        <mxCell id="exXBrJ6WtaJ541hTLERB-35" value="" style="shape=partialRectangle;top=0;left=0;bottom=0;fillColor=none;align=left;verticalAlign=top;spacingLeft=4;spacingRight=4;overflow=hidden;rotatable=0;points=[];portConstraint=eastwest;part=1;fontSize=12;" vertex="1" connectable="0" parent="exXBrJ6WtaJ541hTLERB-34">
          <mxGeometry width="30" height="26" as="geometry" />
        </mxCell>
        <mxCell id="exXBrJ6WtaJ541hTLERB-36" value="phoneNumber" style="shape=partialRectangle;top=0;left=0;right=0;bottom=0;align=left;verticalAlign=top;fillColor=none;spacingLeft=34;spacingRight=4;overflow=hidden;rotatable=0;points=[[0,0.5],[1,0.5]];portConstraint=eastwest;dropTarget=0;fontSize=12;" vertex="1" parent="exXBrJ6WtaJ541hTLERB-25">
          <mxGeometry y="164" width="160" height="26" as="geometry" />
        </mxCell>
        <mxCell id="exXBrJ6WtaJ541hTLERB-37" value="" style="shape=partialRectangle;top=0;left=0;bottom=0;fillColor=none;align=left;verticalAlign=top;spacingLeft=4;spacingRight=4;overflow=hidden;rotatable=0;points=[];portConstraint=eastwest;part=1;fontSize=12;" vertex="1" connectable="0" parent="exXBrJ6WtaJ541hTLERB-36">
          <mxGeometry width="30" height="26" as="geometry" />
        </mxCell>
        <mxCell id="exXBrJ6WtaJ541hTLERB-38" value="eMail" style="shape=partialRectangle;top=0;left=0;right=0;bottom=0;align=left;verticalAlign=top;fillColor=none;spacingLeft=34;spacingRight=4;overflow=hidden;rotatable=0;points=[[0,0.5],[1,0.5]];portConstraint=eastwest;dropTarget=0;fontSize=12;" vertex="1" parent="exXBrJ6WtaJ541hTLERB-25">
          <mxGeometry y="190" width="160" height="26" as="geometry" />
        </mxCell>
        <mxCell id="exXBrJ6WtaJ541hTLERB-39" value="" style="shape=partialRectangle;top=0;left=0;bottom=0;fillColor=none;align=left;verticalAlign=top;spacingLeft=4;spacingRight=4;overflow=hidden;rotatable=0;points=[];portConstraint=eastwest;part=1;fontSize=12;" vertex="1" connectable="0" parent="exXBrJ6WtaJ541hTLERB-38">
          <mxGeometry width="30" height="26" as="geometry" />
        </mxCell>
        <mxCell id="exXBrJ6WtaJ541hTLERB-40" value="password" style="shape=partialRectangle;top=0;left=0;right=0;bottom=0;align=left;verticalAlign=top;fillColor=none;spacingLeft=34;spacingRight=4;overflow=hidden;rotatable=0;points=[[0,0.5],[1,0.5]];portConstraint=eastwest;dropTarget=0;fontSize=12;" vertex="1" parent="exXBrJ6WtaJ541hTLERB-25">
          <mxGeometry y="216" width="160" height="26" as="geometry" />
        </mxCell>
        <mxCell id="exXBrJ6WtaJ541hTLERB-41" value="" style="shape=partialRectangle;top=0;left=0;bottom=0;fillColor=none;align=left;verticalAlign=top;spacingLeft=4;spacingRight=4;overflow=hidden;rotatable=0;points=[];portConstraint=eastwest;part=1;fontSize=12;" vertex="1" connectable="0" parent="exXBrJ6WtaJ541hTLERB-40">
          <mxGeometry width="30" height="26" as="geometry" />
        </mxCell>
        <mxCell id="exXBrJ6WtaJ541hTLERB-42" value="" style="edgeStyle=entityRelationEdgeStyle;fontSize=12;html=1;endArrow=ERoneToMany;exitX=1;exitY=0.5;exitDx=0;exitDy=0;entryX=0;entryY=0.5;entryDx=0;entryDy=0;" edge="1" parent="1" source="exXBrJ6WtaJ541hTLERB-1" target="exXBrJ6WtaJ541hTLERB-30">
          <mxGeometry width="100" height="100" relative="1" as="geometry">
            <mxPoint x="450" y="580" as="sourcePoint" />
            <mxPoint x="550" y="480" as="targetPoint" />
          </mxGeometry>
        </mxCell>
        <mxCell id="exXBrJ6WtaJ541hTLERB-43" value="" style="edgeStyle=elbowEdgeStyle;fontSize=12;html=1;endArrow=ERmandOne;entryX=1;entryY=0.5;entryDx=0;entryDy=0;exitX=0;exitY=0.5;exitDx=0;exitDy=0;" edge="1" parent="1" source="exXBrJ6WtaJ541hTLERB-4" target="exXBrJ6WtaJ541hTLERB-15">
          <mxGeometry width="100" height="100" relative="1" as="geometry">
            <mxPoint x="300" y="520" as="sourcePoint" />
            <mxPoint x="400" y="420" as="targetPoint" />
          </mxGeometry>
        </mxCell>
        <mxCell id="exXBrJ6WtaJ541hTLERB-44" value="Customer" style="swimlane;fontStyle=0;childLayout=stackLayout;horizontal=1;startSize=26;fillColor=#e0e0e0;horizontalStack=0;resizeParent=1;resizeParentMax=0;resizeLast=0;collapsible=1;marginBottom=0;swimlaneFillColor=#ffffff;align=center;fontSize=14;" vertex="1" parent="1">
          <mxGeometry x="530" y="479" width="160" height="264" as="geometry" />
        </mxCell>
        <mxCell id="exXBrJ6WtaJ541hTLERB-45" value="customerId" style="shape=partialRectangle;top=0;left=0;right=0;bottom=1;align=left;verticalAlign=middle;fillColor=none;spacingLeft=34;spacingRight=4;overflow=hidden;rotatable=0;points=[[0,0.5],[1,0.5]];portConstraint=eastwest;dropTarget=0;fontStyle=5;fontSize=12;" vertex="1" parent="exXBrJ6WtaJ541hTLERB-44">
          <mxGeometry y="26" width="160" height="30" as="geometry" />
        </mxCell>
        <mxCell id="exXBrJ6WtaJ541hTLERB-46" value="PK" style="shape=partialRectangle;top=0;left=0;bottom=0;fillColor=none;align=left;verticalAlign=middle;spacingLeft=4;spacingRight=4;overflow=hidden;rotatable=0;points=[];portConstraint=eastwest;part=1;fontSize=12;" vertex="1" connectable="0" parent="exXBrJ6WtaJ541hTLERB-45">
          <mxGeometry width="30" height="30" as="geometry" />
        </mxCell>
        <mxCell id="exXBrJ6WtaJ541hTLERB-47" value="firstName" style="shape=partialRectangle;top=0;left=0;right=0;bottom=0;align=left;verticalAlign=top;fillColor=none;spacingLeft=34;spacingRight=4;overflow=hidden;rotatable=0;points=[[0,0.5],[1,0.5]];portConstraint=eastwest;dropTarget=0;fontSize=12;" vertex="1" parent="exXBrJ6WtaJ541hTLERB-44">
          <mxGeometry y="56" width="160" height="26" as="geometry" />
        </mxCell>
        <mxCell id="exXBrJ6WtaJ541hTLERB-48" value="" style="shape=partialRectangle;top=0;left=0;bottom=0;fillColor=none;align=left;verticalAlign=top;spacingLeft=4;spacingRight=4;overflow=hidden;rotatable=0;points=[];portConstraint=eastwest;part=1;fontSize=12;" vertex="1" connectable="0" parent="exXBrJ6WtaJ541hTLERB-47">
          <mxGeometry width="30" height="26" as="geometry" />
        </mxCell>
        <mxCell id="exXBrJ6WtaJ541hTLERB-49" value="lastName" style="shape=partialRectangle;top=0;left=0;right=0;bottom=0;align=left;verticalAlign=top;fillColor=none;spacingLeft=34;spacingRight=4;overflow=hidden;rotatable=0;points=[[0,0.5],[1,0.5]];portConstraint=eastwest;dropTarget=0;fontSize=12;" vertex="1" parent="exXBrJ6WtaJ541hTLERB-44">
          <mxGeometry y="82" width="160" height="26" as="geometry" />
        </mxCell>
        <mxCell id="exXBrJ6WtaJ541hTLERB-50" value="" style="shape=partialRectangle;top=0;left=0;bottom=0;fillColor=none;align=left;verticalAlign=top;spacingLeft=4;spacingRight=4;overflow=hidden;rotatable=0;points=[];portConstraint=eastwest;part=1;fontSize=12;" vertex="1" connectable="0" parent="exXBrJ6WtaJ541hTLERB-49">
          <mxGeometry width="30" height="26" as="geometry" />
        </mxCell>
        <mxCell id="exXBrJ6WtaJ541hTLERB-51" value="birthdate" style="shape=partialRectangle;top=0;left=0;right=0;bottom=0;align=left;verticalAlign=top;fillColor=none;spacingLeft=34;spacingRight=4;overflow=hidden;rotatable=0;points=[[0,0.5],[1,0.5]];portConstraint=eastwest;dropTarget=0;fontSize=12;" vertex="1" parent="exXBrJ6WtaJ541hTLERB-44">
          <mxGeometry y="108" width="160" height="26" as="geometry" />
        </mxCell>
        <mxCell id="exXBrJ6WtaJ541hTLERB-52" value="" style="shape=partialRectangle;top=0;left=0;bottom=0;fillColor=none;align=left;verticalAlign=top;spacingLeft=4;spacingRight=4;overflow=hidden;rotatable=0;points=[];portConstraint=eastwest;part=1;fontSize=12;" vertex="1" connectable="0" parent="exXBrJ6WtaJ541hTLERB-51">
          <mxGeometry width="30" height="26" as="geometry" />
        </mxCell>
        <mxCell id="exXBrJ6WtaJ541hTLERB-53" value="phoneNumber" style="shape=partialRectangle;top=0;left=0;right=0;bottom=0;align=left;verticalAlign=top;fillColor=none;spacingLeft=34;spacingRight=4;overflow=hidden;rotatable=0;points=[[0,0.5],[1,0.5]];portConstraint=eastwest;dropTarget=0;fontSize=12;" vertex="1" parent="exXBrJ6WtaJ541hTLERB-44">
          <mxGeometry y="134" width="160" height="26" as="geometry" />
        </mxCell>
        <mxCell id="exXBrJ6WtaJ541hTLERB-54" value="" style="shape=partialRectangle;top=0;left=0;bottom=0;fillColor=none;align=left;verticalAlign=top;spacingLeft=4;spacingRight=4;overflow=hidden;rotatable=0;points=[];portConstraint=eastwest;part=1;fontSize=12;" vertex="1" connectable="0" parent="exXBrJ6WtaJ541hTLERB-53">
          <mxGeometry width="30" height="26" as="geometry" />
        </mxCell>
        <mxCell id="exXBrJ6WtaJ541hTLERB-55" value="eMail" style="shape=partialRectangle;top=0;left=0;right=0;bottom=0;align=left;verticalAlign=top;fillColor=none;spacingLeft=34;spacingRight=4;overflow=hidden;rotatable=0;points=[[0,0.5],[1,0.5]];portConstraint=eastwest;dropTarget=0;fontSize=12;" vertex="1" parent="exXBrJ6WtaJ541hTLERB-44">
          <mxGeometry y="160" width="160" height="26" as="geometry" />
        </mxCell>
        <mxCell id="exXBrJ6WtaJ541hTLERB-56" value="" style="shape=partialRectangle;top=0;left=0;bottom=0;fillColor=none;align=left;verticalAlign=top;spacingLeft=4;spacingRight=4;overflow=hidden;rotatable=0;points=[];portConstraint=eastwest;part=1;fontSize=12;" vertex="1" connectable="0" parent="exXBrJ6WtaJ541hTLERB-55">
          <mxGeometry width="30" height="26" as="geometry" />
        </mxCell>
        <mxCell id="exXBrJ6WtaJ541hTLERB-57" value="postalNumber" style="shape=partialRectangle;top=0;left=0;right=0;bottom=0;align=left;verticalAlign=top;fillColor=none;spacingLeft=34;spacingRight=4;overflow=hidden;rotatable=0;points=[[0,0.5],[1,0.5]];portConstraint=eastwest;dropTarget=0;fontSize=12;" vertex="1" parent="exXBrJ6WtaJ541hTLERB-44">
          <mxGeometry y="186" width="160" height="26" as="geometry" />
        </mxCell>
        <mxCell id="exXBrJ6WtaJ541hTLERB-58" value="" style="shape=partialRectangle;top=0;left=0;bottom=0;fillColor=none;align=left;verticalAlign=top;spacingLeft=4;spacingRight=4;overflow=hidden;rotatable=0;points=[];portConstraint=eastwest;part=1;fontSize=12;" vertex="1" connectable="0" parent="exXBrJ6WtaJ541hTLERB-57">
          <mxGeometry width="30" height="26" as="geometry" />
        </mxCell>
        <mxCell id="exXBrJ6WtaJ541hTLERB-59" value="city" style="shape=partialRectangle;top=0;left=0;right=0;bottom=0;align=left;verticalAlign=top;fillColor=none;spacingLeft=34;spacingRight=4;overflow=hidden;rotatable=0;points=[[0,0.5],[1,0.5]];portConstraint=eastwest;dropTarget=0;fontSize=12;" vertex="1" parent="exXBrJ6WtaJ541hTLERB-44">
          <mxGeometry y="212" width="160" height="26" as="geometry" />
        </mxCell>
        <mxCell id="exXBrJ6WtaJ541hTLERB-60" value="" style="shape=partialRectangle;top=0;left=0;bottom=0;fillColor=none;align=left;verticalAlign=top;spacingLeft=4;spacingRight=4;overflow=hidden;rotatable=0;points=[];portConstraint=eastwest;part=1;fontSize=12;" vertex="1" connectable="0" parent="exXBrJ6WtaJ541hTLERB-59">
          <mxGeometry width="30" height="26" as="geometry" />
        </mxCell>
        <mxCell id="exXBrJ6WtaJ541hTLERB-61" value="address" style="shape=partialRectangle;top=0;left=0;right=0;bottom=0;align=left;verticalAlign=top;fillColor=none;spacingLeft=34;spacingRight=4;overflow=hidden;rotatable=0;points=[[0,0.5],[1,0.5]];portConstraint=eastwest;dropTarget=0;fontSize=12;" vertex="1" parent="exXBrJ6WtaJ541hTLERB-44">
          <mxGeometry y="238" width="160" height="26" as="geometry" />
        </mxCell>
        <mxCell id="exXBrJ6WtaJ541hTLERB-62" value="" style="shape=partialRectangle;top=0;left=0;bottom=0;fillColor=none;align=left;verticalAlign=top;spacingLeft=4;spacingRight=4;overflow=hidden;rotatable=0;points=[];portConstraint=eastwest;part=1;fontSize=12;" vertex="1" connectable="0" parent="exXBrJ6WtaJ541hTLERB-61">
          <mxGeometry width="30" height="26" as="geometry" />
        </mxCell>
        <mxCell id="exXBrJ6WtaJ541hTLERB-63" value="hasCustomer" style="swimlane;fontStyle=0;childLayout=stackLayout;horizontal=1;startSize=26;fillColor=#e0e0e0;horizontalStack=0;resizeParent=1;resizeParentMax=0;resizeLast=0;collapsible=1;marginBottom=0;swimlaneFillColor=#ffffff;align=center;fontSize=14;" vertex="1" parent="1">
          <mxGeometry x="260" y="412" width="190" height="112" as="geometry" />
        </mxCell>
        <mxCell id="exXBrJ6WtaJ541hTLERB-64" value="companyId" style="shape=partialRectangle;top=0;left=0;right=0;bottom=0;align=left;verticalAlign=middle;fillColor=none;spacingLeft=60;spacingRight=4;overflow=hidden;rotatable=0;points=[[0,0.5],[1,0.5]];portConstraint=eastwest;dropTarget=0;fontStyle=5;fontSize=12;" vertex="1" parent="exXBrJ6WtaJ541hTLERB-63">
          <mxGeometry y="26" width="190" height="30" as="geometry" />
        </mxCell>
        <mxCell id="exXBrJ6WtaJ541hTLERB-65" value="FK" style="shape=partialRectangle;fontStyle=1;top=0;left=0;bottom=0;fillColor=none;align=left;verticalAlign=middle;spacingLeft=4;spacingRight=4;overflow=hidden;rotatable=0;points=[];portConstraint=eastwest;part=1;fontSize=12;" vertex="1" connectable="0" parent="exXBrJ6WtaJ541hTLERB-64">
          <mxGeometry width="56" height="30" as="geometry" />
        </mxCell>
        <mxCell id="exXBrJ6WtaJ541hTLERB-66" value="customerId" style="shape=partialRectangle;top=0;left=0;right=0;bottom=1;align=left;verticalAlign=middle;fillColor=none;spacingLeft=60;spacingRight=4;overflow=hidden;rotatable=0;points=[[0,0.5],[1,0.5]];portConstraint=eastwest;dropTarget=0;fontStyle=5;fontSize=12;" vertex="1" parent="exXBrJ6WtaJ541hTLERB-63">
          <mxGeometry y="56" width="190" height="30" as="geometry" />
        </mxCell>
        <mxCell id="exXBrJ6WtaJ541hTLERB-67" value="FK" style="shape=partialRectangle;fontStyle=1;top=0;left=0;bottom=0;fillColor=none;align=left;verticalAlign=middle;spacingLeft=4;spacingRight=4;overflow=hidden;rotatable=0;points=[];portConstraint=eastwest;part=1;fontSize=12;" vertex="1" connectable="0" parent="exXBrJ6WtaJ541hTLERB-66">
          <mxGeometry width="56" height="30" as="geometry" />
        </mxCell>
        <mxCell id="exXBrJ6WtaJ541hTLERB-68" value="dateOfEntry" style="shape=partialRectangle;top=0;left=0;right=0;bottom=0;align=left;verticalAlign=top;fillColor=none;spacingLeft=60;spacingRight=4;overflow=hidden;rotatable=0;points=[[0,0.5],[1,0.5]];portConstraint=eastwest;dropTarget=0;fontSize=12;" vertex="1" parent="exXBrJ6WtaJ541hTLERB-63">
          <mxGeometry y="86" width="190" height="26" as="geometry" />
        </mxCell>
        <mxCell id="exXBrJ6WtaJ541hTLERB-69" value="" style="shape=partialRectangle;top=0;left=0;bottom=0;fillColor=none;align=left;verticalAlign=top;spacingLeft=4;spacingRight=4;overflow=hidden;rotatable=0;points=[];portConstraint=eastwest;part=1;fontSize=12;" vertex="1" connectable="0" parent="exXBrJ6WtaJ541hTLERB-68">
          <mxGeometry width="56" height="26" as="geometry" />
        </mxCell>
        <mxCell id="exXBrJ6WtaJ541hTLERB-70" value="" style="edgeStyle=orthogonalEdgeStyle;fontSize=12;html=1;endArrow=ERone;endFill=1;exitX=0;exitY=0.5;exitDx=0;exitDy=0;entryX=0;entryY=0.5;entryDx=0;entryDy=0;" edge="1" parent="1" source="exXBrJ6WtaJ541hTLERB-74" target="exXBrJ6WtaJ541hTLERB-53">
          <mxGeometry width="100" height="100" relative="1" as="geometry">
            <mxPoint x="430" y="744" as="sourcePoint" />
            <mxPoint x="600" y="790" as="targetPoint" />
            <Array as="points">
              <mxPoint x="470" y="861" />
              <mxPoint x="470" y="626" />
            </Array>
          </mxGeometry>
        </mxCell>
        <mxCell id="exXBrJ6WtaJ541hTLERB-71" value="Project" style="swimlane;fontStyle=0;childLayout=stackLayout;horizontal=1;startSize=26;fillColor=#e0e0e0;horizontalStack=0;resizeParent=1;resizeParentMax=0;resizeLast=0;collapsible=1;marginBottom=0;swimlaneFillColor=#ffffff;align=center;fontSize=14;" vertex="1" parent="1">
          <mxGeometry x="560" y="790" width="160" height="220" as="geometry" />
        </mxCell>
        <mxCell id="exXBrJ6WtaJ541hTLERB-72" value="projectId" style="shape=partialRectangle;top=0;left=0;right=0;bottom=1;align=left;verticalAlign=middle;fillColor=none;spacingLeft=34;spacingRight=4;overflow=hidden;rotatable=0;points=[[0,0.5],[1,0.5]];portConstraint=eastwest;dropTarget=0;fontStyle=5;fontSize=12;" vertex="1" parent="exXBrJ6WtaJ541hTLERB-71">
          <mxGeometry y="26" width="160" height="30" as="geometry" />
        </mxCell>
        <mxCell id="exXBrJ6WtaJ541hTLERB-73" value="PK" style="shape=partialRectangle;top=0;left=0;bottom=0;fillColor=none;align=left;verticalAlign=middle;spacingLeft=4;spacingRight=4;overflow=hidden;rotatable=0;points=[];portConstraint=eastwest;part=1;fontSize=12;" vertex="1" connectable="0" parent="exXBrJ6WtaJ541hTLERB-72">
          <mxGeometry width="30" height="30" as="geometry" />
        </mxCell>
        <mxCell id="exXBrJ6WtaJ541hTLERB-74" value="customerId" style="shape=partialRectangle;top=0;left=0;right=0;bottom=1;align=left;verticalAlign=middle;fillColor=none;spacingLeft=34;spacingRight=4;overflow=hidden;rotatable=0;points=[[0,0.5],[1,0.5]];portConstraint=eastwest;dropTarget=0;fontStyle=5;fontSize=12;" vertex="1" parent="exXBrJ6WtaJ541hTLERB-71">
          <mxGeometry y="56" width="160" height="30" as="geometry" />
        </mxCell>
        <mxCell id="exXBrJ6WtaJ541hTLERB-75" value="FK" style="shape=partialRectangle;top=0;left=0;bottom=0;fillColor=none;align=left;verticalAlign=middle;spacingLeft=4;spacingRight=4;overflow=hidden;rotatable=0;points=[];portConstraint=eastwest;part=1;fontSize=12;" vertex="1" connectable="0" parent="exXBrJ6WtaJ541hTLERB-74">
          <mxGeometry width="30" height="30" as="geometry" />
        </mxCell>
        <mxCell id="exXBrJ6WtaJ541hTLERB-76" value="companyId" style="shape=partialRectangle;top=0;left=0;right=0;bottom=1;align=left;verticalAlign=middle;fillColor=none;spacingLeft=34;spacingRight=4;overflow=hidden;rotatable=0;points=[[0,0.5],[1,0.5]];portConstraint=eastwest;dropTarget=0;fontStyle=5;fontSize=12;" vertex="1" parent="exXBrJ6WtaJ541hTLERB-71">
          <mxGeometry y="86" width="160" height="30" as="geometry" />
        </mxCell>
        <mxCell id="exXBrJ6WtaJ541hTLERB-77" value="FK" style="shape=partialRectangle;top=0;left=0;bottom=0;fillColor=none;align=left;verticalAlign=middle;spacingLeft=4;spacingRight=4;overflow=hidden;rotatable=0;points=[];portConstraint=eastwest;part=1;fontSize=12;" vertex="1" connectable="0" parent="exXBrJ6WtaJ541hTLERB-76">
          <mxGeometry width="30" height="30" as="geometry" />
        </mxCell>
        <mxCell id="exXBrJ6WtaJ541hTLERB-78" value="name" style="shape=partialRectangle;top=0;left=0;right=0;bottom=0;align=left;verticalAlign=top;fillColor=none;spacingLeft=34;spacingRight=4;overflow=hidden;rotatable=0;points=[[0,0.5],[1,0.5]];portConstraint=eastwest;dropTarget=0;fontSize=12;" vertex="1" parent="exXBrJ6WtaJ541hTLERB-71">
          <mxGeometry y="116" width="160" height="26" as="geometry" />
        </mxCell>
        <mxCell id="exXBrJ6WtaJ541hTLERB-79" value="" style="shape=partialRectangle;top=0;left=0;bottom=0;fillColor=none;align=left;verticalAlign=top;spacingLeft=4;spacingRight=4;overflow=hidden;rotatable=0;points=[];portConstraint=eastwest;part=1;fontSize=12;" vertex="1" connectable="0" parent="exXBrJ6WtaJ541hTLERB-78">
          <mxGeometry width="30" height="26" as="geometry" />
        </mxCell>
        <mxCell id="exXBrJ6WtaJ541hTLERB-80" value="postalNumber" style="shape=partialRectangle;top=0;left=0;right=0;bottom=0;align=left;verticalAlign=top;fillColor=none;spacingLeft=34;spacingRight=4;overflow=hidden;rotatable=0;points=[[0,0.5],[1,0.5]];portConstraint=eastwest;dropTarget=0;fontSize=12;" vertex="1" parent="exXBrJ6WtaJ541hTLERB-71">
          <mxGeometry y="142" width="160" height="26" as="geometry" />
        </mxCell>
        <mxCell id="exXBrJ6WtaJ541hTLERB-81" value="" style="shape=partialRectangle;top=0;left=0;bottom=0;fillColor=none;align=left;verticalAlign=top;spacingLeft=4;spacingRight=4;overflow=hidden;rotatable=0;points=[];portConstraint=eastwest;part=1;fontSize=12;" vertex="1" connectable="0" parent="exXBrJ6WtaJ541hTLERB-80">
          <mxGeometry width="30" height="26" as="geometry" />
        </mxCell>
        <mxCell id="exXBrJ6WtaJ541hTLERB-82" value="city" style="shape=partialRectangle;top=0;left=0;right=0;bottom=0;align=left;verticalAlign=top;fillColor=none;spacingLeft=34;spacingRight=4;overflow=hidden;rotatable=0;points=[[0,0.5],[1,0.5]];portConstraint=eastwest;dropTarget=0;fontSize=12;" vertex="1" parent="exXBrJ6WtaJ541hTLERB-71">
          <mxGeometry y="168" width="160" height="26" as="geometry" />
        </mxCell>
        <mxCell id="exXBrJ6WtaJ541hTLERB-83" value="" style="shape=partialRectangle;top=0;left=0;bottom=0;fillColor=none;align=left;verticalAlign=top;spacingLeft=4;spacingRight=4;overflow=hidden;rotatable=0;points=[];portConstraint=eastwest;part=1;fontSize=12;" vertex="1" connectable="0" parent="exXBrJ6WtaJ541hTLERB-82">
          <mxGeometry width="30" height="26" as="geometry" />
        </mxCell>
        <mxCell id="exXBrJ6WtaJ541hTLERB-84" value="address" style="shape=partialRectangle;top=0;left=0;right=0;bottom=0;align=left;verticalAlign=top;fillColor=none;spacingLeft=34;spacingRight=4;overflow=hidden;rotatable=0;points=[[0,0.5],[1,0.5]];portConstraint=eastwest;dropTarget=0;fontSize=12;" vertex="1" parent="exXBrJ6WtaJ541hTLERB-71">
          <mxGeometry y="194" width="160" height="26" as="geometry" />
        </mxCell>
        <mxCell id="exXBrJ6WtaJ541hTLERB-85" value="" style="shape=partialRectangle;top=0;left=0;bottom=0;fillColor=none;align=left;verticalAlign=top;spacingLeft=4;spacingRight=4;overflow=hidden;rotatable=0;points=[];portConstraint=eastwest;part=1;fontSize=12;" vertex="1" connectable="0" parent="exXBrJ6WtaJ541hTLERB-84">
          <mxGeometry width="30" height="26" as="geometry" />
        </mxCell>
        <mxCell id="exXBrJ6WtaJ541hTLERB-86" value="Offer" style="swimlane;fontStyle=0;childLayout=stackLayout;horizontal=1;startSize=26;fillColor=#e0e0e0;horizontalStack=0;resizeParent=1;resizeParentMax=0;resizeLast=0;collapsible=1;marginBottom=0;swimlaneFillColor=#ffffff;align=center;fontSize=14;strokeColor=#000000;" vertex="1" parent="1">
          <mxGeometry x="850" y="1076" width="160" height="220" as="geometry" />
        </mxCell>
        <mxCell id="exXBrJ6WtaJ541hTLERB-87" value="offerId" style="shape=partialRectangle;top=0;left=0;right=0;bottom=1;align=left;verticalAlign=middle;fillColor=none;spacingLeft=34;spacingRight=4;overflow=hidden;rotatable=0;points=[[0,0.5],[1,0.5]];portConstraint=eastwest;dropTarget=0;fontStyle=5;fontSize=12;" vertex="1" parent="exXBrJ6WtaJ541hTLERB-86">
          <mxGeometry y="26" width="160" height="30" as="geometry" />
        </mxCell>
        <mxCell id="exXBrJ6WtaJ541hTLERB-88" value="PK" style="shape=partialRectangle;top=0;left=0;bottom=0;fillColor=none;align=left;verticalAlign=middle;spacingLeft=4;spacingRight=4;overflow=hidden;rotatable=0;points=[];portConstraint=eastwest;part=1;fontSize=12;" vertex="1" connectable="0" parent="exXBrJ6WtaJ541hTLERB-87">
          <mxGeometry width="30" height="30" as="geometry" />
        </mxCell>
        <mxCell id="exXBrJ6WtaJ541hTLERB-89" value="projectId" style="shape=partialRectangle;top=0;left=0;right=0;bottom=1;align=left;verticalAlign=middle;fillColor=none;spacingLeft=34;spacingRight=4;overflow=hidden;rotatable=0;points=[[0,0.5],[1,0.5]];portConstraint=eastwest;dropTarget=0;fontStyle=5;fontSize=12;strokeColor=none;" vertex="1" parent="exXBrJ6WtaJ541hTLERB-86">
          <mxGeometry y="56" width="160" height="30" as="geometry" />
        </mxCell>
        <mxCell id="exXBrJ6WtaJ541hTLERB-90" value="FK" style="shape=partialRectangle;top=0;left=0;bottom=0;fillColor=none;align=left;verticalAlign=middle;spacingLeft=4;spacingRight=4;overflow=hidden;rotatable=0;points=[];portConstraint=eastwest;part=1;fontSize=12;" vertex="1" connectable="0" parent="exXBrJ6WtaJ541hTLERB-89">
          <mxGeometry width="30" height="30" as="geometry" />
        </mxCell>
        <mxCell id="exXBrJ6WtaJ541hTLERB-91" value="businessId" style="shape=partialRectangle;top=0;left=0;right=0;bottom=1;align=left;verticalAlign=middle;fillColor=none;spacingLeft=34;spacingRight=4;overflow=hidden;rotatable=0;points=[[0,0.5],[1,0.5]];portConstraint=eastwest;dropTarget=0;fontStyle=5;fontSize=12;" vertex="1" parent="exXBrJ6WtaJ541hTLERB-86">
          <mxGeometry y="86" width="160" height="30" as="geometry" />
        </mxCell>
        <mxCell id="exXBrJ6WtaJ541hTLERB-92" value="FK" style="shape=partialRectangle;top=0;left=0;bottom=0;fillColor=none;align=left;verticalAlign=middle;spacingLeft=4;spacingRight=4;overflow=hidden;rotatable=0;points=[];portConstraint=eastwest;part=1;fontSize=12;" vertex="1" connectable="0" parent="exXBrJ6WtaJ541hTLERB-91">
          <mxGeometry width="30" height="30" as="geometry" />
        </mxCell>
        <mxCell id="exXBrJ6WtaJ541hTLERB-93" value="name" style="shape=partialRectangle;top=0;left=0;right=0;bottom=0;align=left;verticalAlign=top;fillColor=none;spacingLeft=34;spacingRight=4;overflow=hidden;rotatable=0;points=[[0,0.5],[1,0.5]];portConstraint=eastwest;dropTarget=0;fontSize=12;" vertex="1" parent="exXBrJ6WtaJ541hTLERB-86">
          <mxGeometry y="116" width="160" height="26" as="geometry" />
        </mxCell>
        <mxCell id="exXBrJ6WtaJ541hTLERB-94" value="" style="shape=partialRectangle;top=0;left=0;bottom=0;fillColor=none;align=left;verticalAlign=top;spacingLeft=4;spacingRight=4;overflow=hidden;rotatable=0;points=[];portConstraint=eastwest;part=1;fontSize=12;" vertex="1" connectable="0" parent="exXBrJ6WtaJ541hTLERB-93">
          <mxGeometry width="30" height="26" as="geometry" />
        </mxCell>
        <mxCell id="exXBrJ6WtaJ541hTLERB-95" value="postalNumber" style="shape=partialRectangle;top=0;left=0;right=0;bottom=0;align=left;verticalAlign=top;fillColor=none;spacingLeft=34;spacingRight=4;overflow=hidden;rotatable=0;points=[[0,0.5],[1,0.5]];portConstraint=eastwest;dropTarget=0;fontSize=12;" vertex="1" parent="exXBrJ6WtaJ541hTLERB-86">
          <mxGeometry y="142" width="160" height="26" as="geometry" />
        </mxCell>
        <mxCell id="exXBrJ6WtaJ541hTLERB-96" value="" style="shape=partialRectangle;top=0;left=0;bottom=0;fillColor=none;align=left;verticalAlign=top;spacingLeft=4;spacingRight=4;overflow=hidden;rotatable=0;points=[];portConstraint=eastwest;part=1;fontSize=12;" vertex="1" connectable="0" parent="exXBrJ6WtaJ541hTLERB-95">
          <mxGeometry width="30" height="26" as="geometry" />
        </mxCell>
        <mxCell id="exXBrJ6WtaJ541hTLERB-97" value="city" style="shape=partialRectangle;top=0;left=0;right=0;bottom=0;align=left;verticalAlign=top;fillColor=none;spacingLeft=34;spacingRight=4;overflow=hidden;rotatable=0;points=[[0,0.5],[1,0.5]];portConstraint=eastwest;dropTarget=0;fontSize=12;" vertex="1" parent="exXBrJ6WtaJ541hTLERB-86">
          <mxGeometry y="168" width="160" height="26" as="geometry" />
        </mxCell>
        <mxCell id="exXBrJ6WtaJ541hTLERB-98" value="" style="shape=partialRectangle;top=0;left=0;bottom=0;fillColor=none;align=left;verticalAlign=top;spacingLeft=4;spacingRight=4;overflow=hidden;rotatable=0;points=[];portConstraint=eastwest;part=1;fontSize=12;" vertex="1" connectable="0" parent="exXBrJ6WtaJ541hTLERB-97">
          <mxGeometry width="30" height="26" as="geometry" />
        </mxCell>
        <mxCell id="exXBrJ6WtaJ541hTLERB-99" value="address" style="shape=partialRectangle;top=0;left=0;right=0;bottom=0;align=left;verticalAlign=top;fillColor=none;spacingLeft=34;spacingRight=4;overflow=hidden;rotatable=0;points=[[0,0.5],[1,0.5]];portConstraint=eastwest;dropTarget=0;fontSize=12;" vertex="1" parent="exXBrJ6WtaJ541hTLERB-86">
          <mxGeometry y="194" width="160" height="26" as="geometry" />
        </mxCell>
        <mxCell id="exXBrJ6WtaJ541hTLERB-100" value="" style="shape=partialRectangle;top=0;left=0;bottom=0;fillColor=none;align=left;verticalAlign=top;spacingLeft=4;spacingRight=4;overflow=hidden;rotatable=0;points=[];portConstraint=eastwest;part=1;fontSize=12;" vertex="1" connectable="0" parent="exXBrJ6WtaJ541hTLERB-99">
          <mxGeometry width="30" height="26" as="geometry" />
        </mxCell>
        <mxCell id="exXBrJ6WtaJ541hTLERB-101" value="" style="edgeStyle=elbowEdgeStyle;fontSize=12;html=1;endArrow=ERoneToMany;exitX=1;exitY=0.5;exitDx=0;exitDy=0;entryX=1;entryY=0.5;entryDx=0;entryDy=0;" edge="1" parent="1" source="exXBrJ6WtaJ541hTLERB-78" target="exXBrJ6WtaJ541hTLERB-86">
          <mxGeometry width="100" height="100" relative="1" as="geometry">
            <mxPoint x="1010" y="841" as="sourcePoint" />
            <mxPoint x="1110" y="990" as="targetPoint" />
            <Array as="points">
              <mxPoint x="1080" y="1020" />
            </Array>
          </mxGeometry>
        </mxCell>
        <mxCell id="exXBrJ6WtaJ541hTLERB-102" value="" style="edgeStyle=elbowEdgeStyle;fontSize=12;html=1;endArrow=ERmandOne;entryX=1;entryY=0.5;entryDx=0;entryDy=0;exitX=0;exitY=0.5;exitDx=0;exitDy=0;" edge="1" parent="1" source="exXBrJ6WtaJ541hTLERB-76" target="exXBrJ6WtaJ541hTLERB-19">
          <mxGeometry width="100" height="100" relative="1" as="geometry">
            <mxPoint x="240" y="774.0000000000002" as="sourcePoint" />
            <mxPoint x="120" y="825" as="targetPoint" />
            <Array as="points">
              <mxPoint x="210" y="610" />
            </Array>
          </mxGeometry>
        </mxCell>
        <mxCell id="exXBrJ6WtaJ541hTLERB-103" value="" style="edgeStyle=elbowEdgeStyle;fontSize=12;html=1;endArrow=ERmandOne;entryX=1;entryY=0.5;entryDx=0;entryDy=0;exitX=0;exitY=0.5;exitDx=0;exitDy=0;" edge="1" parent="1" source="exXBrJ6WtaJ541hTLERB-66" target="exXBrJ6WtaJ541hTLERB-17">
          <mxGeometry width="100" height="100" relative="1" as="geometry">
            <mxPoint x="250" y="841" as="sourcePoint" />
            <mxPoint x="170" y="401" as="targetPoint" />
            <Array as="points">
              <mxPoint x="230" y="420" />
            </Array>
          </mxGeometry>
        </mxCell>
        <mxCell id="exXBrJ6WtaJ541hTLERB-104" value="" style="edgeStyle=elbowEdgeStyle;fontSize=12;html=1;endArrow=ERmandOne;entryX=0;entryY=0.5;entryDx=0;entryDy=0;exitX=1;exitY=0.5;exitDx=0;exitDy=0;" edge="1" parent="1" source="exXBrJ6WtaJ541hTLERB-118" target="exXBrJ6WtaJ541hTLERB-95">
          <mxGeometry width="100" height="100" relative="1" as="geometry">
            <mxPoint x="430" y="1322" as="sourcePoint" />
            <mxPoint x="330" y="1310" as="targetPoint" />
          </mxGeometry>
        </mxCell>
        <mxCell id="exXBrJ6WtaJ541hTLERB-105" value="hasManualArticle" style="swimlane;fontStyle=0;childLayout=stackLayout;horizontal=1;startSize=26;fillColor=#e0e0e0;horizontalStack=0;resizeParent=1;resizeParentMax=0;resizeLast=0;collapsible=1;marginBottom=0;swimlaneFillColor=#ffffff;align=center;fontSize=14;" vertex="1" parent="1">
          <mxGeometry x="-190" y="529" width="190" height="112" as="geometry" />
        </mxCell>
        <mxCell id="exXBrJ6WtaJ541hTLERB-106" value="companyId" style="shape=partialRectangle;top=0;left=0;right=0;bottom=0;align=left;verticalAlign=middle;fillColor=none;spacingLeft=60;spacingRight=4;overflow=hidden;rotatable=0;points=[[0,0.5],[1,0.5]];portConstraint=eastwest;dropTarget=0;fontStyle=5;fontSize=12;" vertex="1" parent="exXBrJ6WtaJ541hTLERB-105">
          <mxGeometry y="26" width="190" height="30" as="geometry" />
        </mxCell>
        <mxCell id="exXBrJ6WtaJ541hTLERB-107" value="FK" style="shape=partialRectangle;fontStyle=1;top=0;left=0;bottom=0;fillColor=none;align=left;verticalAlign=middle;spacingLeft=4;spacingRight=4;overflow=hidden;rotatable=0;points=[];portConstraint=eastwest;part=1;fontSize=12;" vertex="1" connectable="0" parent="exXBrJ6WtaJ541hTLERB-106">
          <mxGeometry width="56" height="30" as="geometry" />
        </mxCell>
        <mxCell id="exXBrJ6WtaJ541hTLERB-108" value="manualArticleId" style="shape=partialRectangle;top=0;left=0;right=0;bottom=1;align=left;verticalAlign=middle;fillColor=none;spacingLeft=60;spacingRight=4;overflow=hidden;rotatable=0;points=[[0,0.5],[1,0.5]];portConstraint=eastwest;dropTarget=0;fontStyle=5;fontSize=12;" vertex="1" parent="exXBrJ6WtaJ541hTLERB-105">
          <mxGeometry y="56" width="190" height="30" as="geometry" />
        </mxCell>
        <mxCell id="exXBrJ6WtaJ541hTLERB-109" value="FK" style="shape=partialRectangle;fontStyle=1;top=0;left=0;bottom=0;fillColor=none;align=left;verticalAlign=middle;spacingLeft=4;spacingRight=4;overflow=hidden;rotatable=0;points=[];portConstraint=eastwest;part=1;fontSize=12;" vertex="1" connectable="0" parent="exXBrJ6WtaJ541hTLERB-108">
          <mxGeometry width="56" height="30" as="geometry" />
        </mxCell>
        <mxCell id="exXBrJ6WtaJ541hTLERB-110" value="dateOfEntry" style="shape=partialRectangle;top=0;left=0;right=0;bottom=0;align=left;verticalAlign=top;fillColor=none;spacingLeft=60;spacingRight=4;overflow=hidden;rotatable=0;points=[[0,0.5],[1,0.5]];portConstraint=eastwest;dropTarget=0;fontSize=12;" vertex="1" parent="exXBrJ6WtaJ541hTLERB-105">
          <mxGeometry y="86" width="190" height="26" as="geometry" />
        </mxCell>
        <mxCell id="exXBrJ6WtaJ541hTLERB-111" value="" style="shape=partialRectangle;top=0;left=0;bottom=0;fillColor=none;align=left;verticalAlign=top;spacingLeft=4;spacingRight=4;overflow=hidden;rotatable=0;points=[];portConstraint=eastwest;part=1;fontSize=12;" vertex="1" connectable="0" parent="exXBrJ6WtaJ541hTLERB-110">
          <mxGeometry width="56" height="26" as="geometry" />
        </mxCell>
        <mxCell id="exXBrJ6WtaJ541hTLERB-112" value="" style="edgeStyle=elbowEdgeStyle;fontSize=12;html=1;endArrow=ERmandOne;entryX=1;entryY=0.5;entryDx=0;entryDy=0;exitX=1;exitY=0.5;exitDx=0;exitDy=0;" edge="1" parent="1" source="exXBrJ6WtaJ541hTLERB-108" target="exXBrJ6WtaJ541hTLERB-21">
          <mxGeometry width="100" height="100" relative="1" as="geometry">
            <mxPoint x="250" y="841" as="sourcePoint" />
            <mxPoint x="170" y="401" as="targetPoint" />
            <Array as="points">
              <mxPoint x="190" y="490" />
            </Array>
          </mxGeometry>
        </mxCell>
        <mxCell id="exXBrJ6WtaJ541hTLERB-113" value="" style="edgeStyle=entityRelationEdgeStyle;fontSize=12;html=1;endArrow=ERoneToMany;exitX=1;exitY=0.5;exitDx=0;exitDy=0;entryX=0;entryY=0.5;entryDx=0;entryDy=0;" edge="1" parent="1" source="exXBrJ6WtaJ541hTLERB-66" target="exXBrJ6WtaJ541hTLERB-51">
          <mxGeometry width="100" height="100" relative="1" as="geometry">
            <mxPoint x="440" y="841" as="sourcePoint" />
            <mxPoint x="570" y="869" as="targetPoint" />
          </mxGeometry>
        </mxCell>
        <mxCell id="exXBrJ6WtaJ541hTLERB-114" value="" style="edgeStyle=elbowEdgeStyle;fontSize=12;html=1;endArrow=ERoneToMany;exitX=0;exitY=0.5;exitDx=0;exitDy=0;entryX=-0.017;entryY=0.022;entryDx=0;entryDy=0;entryPerimeter=0;" edge="1" parent="1" source="exXBrJ6WtaJ541hTLERB-108" target="exXBrJ6WtaJ541hTLERB-189">
          <mxGeometry width="100" height="100" relative="1" as="geometry">
            <mxPoint x="460" y="493" as="sourcePoint" />
            <mxPoint x="-200" y="798.9999999999998" as="targetPoint" />
            <Array as="points">
              <mxPoint x="-550" y="830" />
              <mxPoint x="-530" y="780" />
            </Array>
          </mxGeometry>
        </mxCell>
        <mxCell id="exXBrJ6WtaJ541hTLERB-115" value="hasEntry" style="swimlane;fontStyle=0;childLayout=stackLayout;horizontal=1;startSize=26;fillColor=#e0e0e0;horizontalStack=0;resizeParent=1;resizeParentMax=0;resizeLast=0;collapsible=1;marginBottom=0;swimlaneFillColor=#ffffff;align=center;fontSize=14;" vertex="1" parent="1">
          <mxGeometry x="550" y="1090" width="190" height="112" as="geometry" />
        </mxCell>
        <mxCell id="exXBrJ6WtaJ541hTLERB-116" value="offerId" style="shape=partialRectangle;top=0;left=0;right=0;bottom=0;align=left;verticalAlign=middle;fillColor=none;spacingLeft=60;spacingRight=4;overflow=hidden;rotatable=0;points=[[0,0.5],[1,0.5]];portConstraint=eastwest;dropTarget=0;fontStyle=5;fontSize=12;" vertex="1" parent="exXBrJ6WtaJ541hTLERB-115">
          <mxGeometry y="26" width="190" height="30" as="geometry" />
        </mxCell>
        <mxCell id="exXBrJ6WtaJ541hTLERB-117" value="FK" style="shape=partialRectangle;fontStyle=1;top=0;left=0;bottom=0;fillColor=none;align=left;verticalAlign=middle;spacingLeft=4;spacingRight=4;overflow=hidden;rotatable=0;points=[];portConstraint=eastwest;part=1;fontSize=12;" vertex="1" connectable="0" parent="exXBrJ6WtaJ541hTLERB-116">
          <mxGeometry width="56" height="30" as="geometry" />
        </mxCell>
        <mxCell id="exXBrJ6WtaJ541hTLERB-118" value="entryId" style="shape=partialRectangle;top=0;left=0;right=0;bottom=1;align=left;verticalAlign=middle;fillColor=none;spacingLeft=60;spacingRight=4;overflow=hidden;rotatable=0;points=[[0,0.5],[1,0.5]];portConstraint=eastwest;dropTarget=0;fontStyle=5;fontSize=12;" vertex="1" parent="exXBrJ6WtaJ541hTLERB-115">
          <mxGeometry y="56" width="190" height="30" as="geometry" />
        </mxCell>
        <mxCell id="exXBrJ6WtaJ541hTLERB-119" value="FK" style="shape=partialRectangle;fontStyle=1;top=0;left=0;bottom=0;fillColor=none;align=left;verticalAlign=middle;spacingLeft=4;spacingRight=4;overflow=hidden;rotatable=0;points=[];portConstraint=eastwest;part=1;fontSize=12;" vertex="1" connectable="0" parent="exXBrJ6WtaJ541hTLERB-118">
          <mxGeometry width="56" height="30" as="geometry" />
        </mxCell>
        <mxCell id="exXBrJ6WtaJ541hTLERB-120" value="index" style="shape=partialRectangle;top=0;left=0;right=0;bottom=0;align=left;verticalAlign=top;fillColor=none;spacingLeft=60;spacingRight=4;overflow=hidden;rotatable=0;points=[[0,0.5],[1,0.5]];portConstraint=eastwest;dropTarget=0;fontSize=12;" vertex="1" parent="exXBrJ6WtaJ541hTLERB-115">
          <mxGeometry y="86" width="190" height="26" as="geometry" />
        </mxCell>
        <mxCell id="exXBrJ6WtaJ541hTLERB-121" value="" style="shape=partialRectangle;top=0;left=0;bottom=0;fillColor=none;align=left;verticalAlign=top;spacingLeft=4;spacingRight=4;overflow=hidden;rotatable=0;points=[];portConstraint=eastwest;part=1;fontSize=12;" vertex="1" connectable="0" parent="exXBrJ6WtaJ541hTLERB-120">
          <mxGeometry width="56" height="26" as="geometry" />
        </mxCell>
        <mxCell id="exXBrJ6WtaJ541hTLERB-122" value="Entry" style="swimlane;fontStyle=0;childLayout=stackLayout;horizontal=1;startSize=26;fillColor=#e0e0e0;horizontalStack=0;resizeParent=1;resizeParentMax=0;resizeLast=0;collapsible=1;marginBottom=0;swimlaneFillColor=#ffffff;align=center;fontSize=14;" vertex="1" parent="1">
          <mxGeometry x="300" y="1150" width="160" height="238" as="geometry" />
        </mxCell>
        <mxCell id="exXBrJ6WtaJ541hTLERB-123" value="entryId" style="shape=partialRectangle;top=0;left=0;right=0;bottom=1;align=left;verticalAlign=middle;fillColor=none;spacingLeft=34;spacingRight=4;overflow=hidden;rotatable=0;points=[[0,0.5],[1,0.5]];portConstraint=eastwest;dropTarget=0;fontStyle=5;fontSize=12;" vertex="1" parent="exXBrJ6WtaJ541hTLERB-122">
          <mxGeometry y="26" width="160" height="30" as="geometry" />
        </mxCell>
        <mxCell id="exXBrJ6WtaJ541hTLERB-124" value="PK" style="shape=partialRectangle;top=0;left=0;bottom=0;fillColor=none;align=left;verticalAlign=middle;spacingLeft=4;spacingRight=4;overflow=hidden;rotatable=0;points=[];portConstraint=eastwest;part=1;fontSize=12;" vertex="1" connectable="0" parent="exXBrJ6WtaJ541hTLERB-123">
          <mxGeometry width="30" height="30" as="geometry" />
        </mxCell>
        <mxCell id="exXBrJ6WtaJ541hTLERB-125" value="text" style="shape=partialRectangle;top=0;left=0;right=0;bottom=0;align=left;verticalAlign=top;fillColor=none;spacingLeft=34;spacingRight=4;overflow=hidden;rotatable=0;points=[[0,0.5],[1,0.5]];portConstraint=eastwest;dropTarget=0;fontSize=12;" vertex="1" parent="exXBrJ6WtaJ541hTLERB-122">
          <mxGeometry y="56" width="160" height="26" as="geometry" />
        </mxCell>
        <mxCell id="exXBrJ6WtaJ541hTLERB-126" value="" style="shape=partialRectangle;top=0;left=0;bottom=0;fillColor=none;align=left;verticalAlign=top;spacingLeft=4;spacingRight=4;overflow=hidden;rotatable=0;points=[];portConstraint=eastwest;part=1;fontSize=12;" vertex="1" connectable="0" parent="exXBrJ6WtaJ541hTLERB-125">
          <mxGeometry width="30" height="26" as="geometry" />
        </mxCell>
        <mxCell id="exXBrJ6WtaJ541hTLERB-127" value="birthdate" style="shape=partialRectangle;top=0;left=0;right=0;bottom=0;align=left;verticalAlign=top;fillColor=none;spacingLeft=34;spacingRight=4;overflow=hidden;rotatable=0;points=[[0,0.5],[1,0.5]];portConstraint=eastwest;dropTarget=0;fontSize=12;" vertex="1" parent="exXBrJ6WtaJ541hTLERB-122">
          <mxGeometry y="82" width="160" height="26" as="geometry" />
        </mxCell>
        <mxCell id="exXBrJ6WtaJ541hTLERB-128" value="" style="shape=partialRectangle;top=0;left=0;bottom=0;fillColor=none;align=left;verticalAlign=top;spacingLeft=4;spacingRight=4;overflow=hidden;rotatable=0;points=[];portConstraint=eastwest;part=1;fontSize=12;" vertex="1" connectable="0" parent="exXBrJ6WtaJ541hTLERB-127">
          <mxGeometry width="30" height="26" as="geometry" />
        </mxCell>
        <mxCell id="exXBrJ6WtaJ541hTLERB-129" value="phoneNumber" style="shape=partialRectangle;top=0;left=0;right=0;bottom=0;align=left;verticalAlign=top;fillColor=none;spacingLeft=34;spacingRight=4;overflow=hidden;rotatable=0;points=[[0,0.5],[1,0.5]];portConstraint=eastwest;dropTarget=0;fontSize=12;" vertex="1" parent="exXBrJ6WtaJ541hTLERB-122">
          <mxGeometry y="108" width="160" height="26" as="geometry" />
        </mxCell>
        <mxCell id="exXBrJ6WtaJ541hTLERB-130" value="" style="shape=partialRectangle;top=0;left=0;bottom=0;fillColor=none;align=left;verticalAlign=top;spacingLeft=4;spacingRight=4;overflow=hidden;rotatable=0;points=[];portConstraint=eastwest;part=1;fontSize=12;" vertex="1" connectable="0" parent="exXBrJ6WtaJ541hTLERB-129">
          <mxGeometry width="30" height="26" as="geometry" />
        </mxCell>
        <mxCell id="exXBrJ6WtaJ541hTLERB-131" value="eMail" style="shape=partialRectangle;top=0;left=0;right=0;bottom=0;align=left;verticalAlign=top;fillColor=none;spacingLeft=34;spacingRight=4;overflow=hidden;rotatable=0;points=[[0,0.5],[1,0.5]];portConstraint=eastwest;dropTarget=0;fontSize=12;" vertex="1" parent="exXBrJ6WtaJ541hTLERB-122">
          <mxGeometry y="134" width="160" height="26" as="geometry" />
        </mxCell>
        <mxCell id="exXBrJ6WtaJ541hTLERB-132" value="" style="shape=partialRectangle;top=0;left=0;bottom=0;fillColor=none;align=left;verticalAlign=top;spacingLeft=4;spacingRight=4;overflow=hidden;rotatable=0;points=[];portConstraint=eastwest;part=1;fontSize=12;" vertex="1" connectable="0" parent="exXBrJ6WtaJ541hTLERB-131">
          <mxGeometry width="30" height="26" as="geometry" />
        </mxCell>
        <mxCell id="exXBrJ6WtaJ541hTLERB-133" value="postalNumber" style="shape=partialRectangle;top=0;left=0;right=0;bottom=0;align=left;verticalAlign=top;fillColor=none;spacingLeft=34;spacingRight=4;overflow=hidden;rotatable=0;points=[[0,0.5],[1,0.5]];portConstraint=eastwest;dropTarget=0;fontSize=12;" vertex="1" parent="exXBrJ6WtaJ541hTLERB-122">
          <mxGeometry y="160" width="160" height="26" as="geometry" />
        </mxCell>
        <mxCell id="exXBrJ6WtaJ541hTLERB-134" value="" style="shape=partialRectangle;top=0;left=0;bottom=0;fillColor=none;align=left;verticalAlign=top;spacingLeft=4;spacingRight=4;overflow=hidden;rotatable=0;points=[];portConstraint=eastwest;part=1;fontSize=12;" vertex="1" connectable="0" parent="exXBrJ6WtaJ541hTLERB-133">
          <mxGeometry width="30" height="26" as="geometry" />
        </mxCell>
        <mxCell id="exXBrJ6WtaJ541hTLERB-135" value="city" style="shape=partialRectangle;top=0;left=0;right=0;bottom=0;align=left;verticalAlign=top;fillColor=none;spacingLeft=34;spacingRight=4;overflow=hidden;rotatable=0;points=[[0,0.5],[1,0.5]];portConstraint=eastwest;dropTarget=0;fontSize=12;" vertex="1" parent="exXBrJ6WtaJ541hTLERB-122">
          <mxGeometry y="186" width="160" height="26" as="geometry" />
        </mxCell>
        <mxCell id="exXBrJ6WtaJ541hTLERB-136" value="" style="shape=partialRectangle;top=0;left=0;bottom=0;fillColor=none;align=left;verticalAlign=top;spacingLeft=4;spacingRight=4;overflow=hidden;rotatable=0;points=[];portConstraint=eastwest;part=1;fontSize=12;" vertex="1" connectable="0" parent="exXBrJ6WtaJ541hTLERB-135">
          <mxGeometry width="30" height="26" as="geometry" />
        </mxCell>
        <mxCell id="exXBrJ6WtaJ541hTLERB-137" value="address" style="shape=partialRectangle;top=0;left=0;right=0;bottom=0;align=left;verticalAlign=top;fillColor=none;spacingLeft=34;spacingRight=4;overflow=hidden;rotatable=0;points=[[0,0.5],[1,0.5]];portConstraint=eastwest;dropTarget=0;fontSize=12;" vertex="1" parent="exXBrJ6WtaJ541hTLERB-122">
          <mxGeometry y="212" width="160" height="26" as="geometry" />
        </mxCell>
        <mxCell id="exXBrJ6WtaJ541hTLERB-138" value="" style="shape=partialRectangle;top=0;left=0;bottom=0;fillColor=none;align=left;verticalAlign=top;spacingLeft=4;spacingRight=4;overflow=hidden;rotatable=0;points=[];portConstraint=eastwest;part=1;fontSize=12;" vertex="1" connectable="0" parent="exXBrJ6WtaJ541hTLERB-137">
          <mxGeometry width="30" height="26" as="geometry" />
        </mxCell>
        <mxCell id="exXBrJ6WtaJ541hTLERB-139" value="" style="edgeStyle=elbowEdgeStyle;fontSize=12;html=1;endArrow=ERoneToMany;exitX=0;exitY=0.5;exitDx=0;exitDy=0;entryX=1;entryY=0.5;entryDx=0;entryDy=0;" edge="1" parent="1" source="exXBrJ6WtaJ541hTLERB-118" target="exXBrJ6WtaJ541hTLERB-129">
          <mxGeometry width="100" height="100" relative="1" as="geometry">
            <mxPoint x="440" y="841" as="sourcePoint" />
            <mxPoint x="570" y="869" as="targetPoint" />
          </mxGeometry>
        </mxCell>
        <mxCell id="exXBrJ6WtaJ541hTLERB-140" value="hasArticle" style="swimlane;fontStyle=0;childLayout=stackLayout;horizontal=1;startSize=26;fillColor=#e0e0e0;horizontalStack=0;resizeParent=1;resizeParentMax=0;resizeLast=0;collapsible=1;marginBottom=0;swimlaneFillColor=#ffffff;align=center;fontSize=14;" vertex="1" parent="1">
          <mxGeometry x="30" y="968" width="190" height="168" as="geometry" />
        </mxCell>
        <mxCell id="exXBrJ6WtaJ541hTLERB-141" value="entryId" style="shape=partialRectangle;top=0;left=0;right=0;bottom=0;align=left;verticalAlign=middle;fillColor=none;spacingLeft=60;spacingRight=4;overflow=hidden;rotatable=0;points=[[0,0.5],[1,0.5]];portConstraint=eastwest;dropTarget=0;fontStyle=5;fontSize=12;" vertex="1" parent="exXBrJ6WtaJ541hTLERB-140">
          <mxGeometry y="26" width="190" height="30" as="geometry" />
        </mxCell>
        <mxCell id="exXBrJ6WtaJ541hTLERB-142" value="FK" style="shape=partialRectangle;fontStyle=1;top=0;left=0;bottom=0;fillColor=none;align=left;verticalAlign=middle;spacingLeft=4;spacingRight=4;overflow=hidden;rotatable=0;points=[];portConstraint=eastwest;part=1;fontSize=12;" vertex="1" connectable="0" parent="exXBrJ6WtaJ541hTLERB-141">
          <mxGeometry width="56" height="30" as="geometry" />
        </mxCell>
        <mxCell id="exXBrJ6WtaJ541hTLERB-143" value="entryId" style="shape=partialRectangle;top=0;left=0;right=0;bottom=1;align=left;verticalAlign=middle;fillColor=none;spacingLeft=60;spacingRight=4;overflow=hidden;rotatable=0;points=[[0,0.5],[1,0.5]];portConstraint=eastwest;dropTarget=0;fontStyle=5;fontSize=12;strokeColor=none;" vertex="1" parent="exXBrJ6WtaJ541hTLERB-140">
          <mxGeometry y="56" width="190" height="30" as="geometry" />
        </mxCell>
        <mxCell id="exXBrJ6WtaJ541hTLERB-144" value="FK" style="shape=partialRectangle;fontStyle=1;top=0;left=0;bottom=0;fillColor=none;align=left;verticalAlign=middle;spacingLeft=4;spacingRight=4;overflow=hidden;rotatable=0;points=[];portConstraint=eastwest;part=1;fontSize=12;" vertex="1" connectable="0" parent="exXBrJ6WtaJ541hTLERB-143">
          <mxGeometry width="56" height="30" as="geometry" />
        </mxCell>
        <mxCell id="exXBrJ6WtaJ541hTLERB-145" value="unitId" style="shape=partialRectangle;top=0;left=0;right=0;bottom=1;align=left;verticalAlign=middle;fillColor=none;spacingLeft=60;spacingRight=4;overflow=hidden;rotatable=0;points=[[0,0.5],[1,0.5]];portConstraint=eastwest;dropTarget=0;fontStyle=5;fontSize=12;" vertex="1" parent="exXBrJ6WtaJ541hTLERB-140">
          <mxGeometry y="86" width="190" height="30" as="geometry" />
        </mxCell>
        <mxCell id="exXBrJ6WtaJ541hTLERB-146" value="FK" style="shape=partialRectangle;fontStyle=1;top=0;left=0;bottom=0;fillColor=none;align=left;verticalAlign=middle;spacingLeft=4;spacingRight=4;overflow=hidden;rotatable=0;points=[];portConstraint=eastwest;part=1;fontSize=12;" vertex="1" connectable="0" parent="exXBrJ6WtaJ541hTLERB-145">
          <mxGeometry width="56" height="30" as="geometry" />
        </mxCell>
        <mxCell id="exXBrJ6WtaJ541hTLERB-147" value="index" style="shape=partialRectangle;top=0;left=0;right=0;bottom=0;align=left;verticalAlign=top;fillColor=none;spacingLeft=60;spacingRight=4;overflow=hidden;rotatable=0;points=[[0,0.5],[1,0.5]];portConstraint=eastwest;dropTarget=0;fontSize=12;" vertex="1" parent="exXBrJ6WtaJ541hTLERB-140">
          <mxGeometry y="116" width="190" height="26" as="geometry" />
        </mxCell>
        <mxCell id="exXBrJ6WtaJ541hTLERB-148" value="" style="shape=partialRectangle;top=0;left=0;bottom=0;fillColor=none;align=left;verticalAlign=top;spacingLeft=4;spacingRight=4;overflow=hidden;rotatable=0;points=[];portConstraint=eastwest;part=1;fontSize=12;" vertex="1" connectable="0" parent="exXBrJ6WtaJ541hTLERB-147">
          <mxGeometry width="56" height="26" as="geometry" />
        </mxCell>
        <mxCell id="exXBrJ6WtaJ541hTLERB-149" value="amount" style="shape=partialRectangle;top=0;left=0;right=0;bottom=0;align=left;verticalAlign=top;fillColor=none;spacingLeft=60;spacingRight=4;overflow=hidden;rotatable=0;points=[[0,0.5],[1,0.5]];portConstraint=eastwest;dropTarget=0;fontSize=12;" vertex="1" parent="exXBrJ6WtaJ541hTLERB-140">
          <mxGeometry y="142" width="190" height="26" as="geometry" />
        </mxCell>
        <mxCell id="exXBrJ6WtaJ541hTLERB-150" value="" style="shape=partialRectangle;top=0;left=0;bottom=0;fillColor=none;align=left;verticalAlign=top;spacingLeft=4;spacingRight=4;overflow=hidden;rotatable=0;points=[];portConstraint=eastwest;part=1;fontSize=12;" vertex="1" connectable="0" parent="exXBrJ6WtaJ541hTLERB-149">
          <mxGeometry width="56" height="26" as="geometry" />
        </mxCell>
        <mxCell id="exXBrJ6WtaJ541hTLERB-151" value="" style="edgeStyle=elbowEdgeStyle;fontSize=12;html=1;endArrow=ERoneToMany;exitX=0;exitY=0.5;exitDx=0;exitDy=0;entryX=1;entryY=0.25;entryDx=0;entryDy=0;" edge="1" parent="1" source="exXBrJ6WtaJ541hTLERB-143" target="exXBrJ6WtaJ541hTLERB-188">
          <mxGeometry width="100" height="100" relative="1" as="geometry">
            <mxPoint x="40" y="790" as="sourcePoint" />
            <mxPoint x="-320" y="1290" as="targetPoint" />
            <Array as="points">
              <mxPoint x="-160" y="970" />
              <mxPoint x="-70" y="1020" />
            </Array>
          </mxGeometry>
        </mxCell>
        <mxCell id="exXBrJ6WtaJ541hTLERB-152" value="" style="edgeStyle=elbowEdgeStyle;fontSize=12;html=1;endArrow=ERmandOne;entryX=1;entryY=0.5;entryDx=0;entryDy=0;exitX=0;exitY=0.5;exitDx=0;exitDy=0;" edge="1" parent="1" source="exXBrJ6WtaJ541hTLERB-127" target="exXBrJ6WtaJ541hTLERB-143">
          <mxGeometry width="100" height="100" relative="1" as="geometry">
            <mxPoint x="540" y="1205" as="sourcePoint" />
            <mxPoint x="610" y="1195" as="targetPoint" />
          </mxGeometry>
        </mxCell>
        <mxCell id="exXBrJ6WtaJ541hTLERB-153" value="" style="edgeStyle=elbowEdgeStyle;fontSize=12;html=1;endArrow=ERmandOne;entryX=1;entryY=0.5;entryDx=0;entryDy=0;exitX=1;exitY=0.5;exitDx=0;exitDy=0;" edge="1" parent="1" source="exXBrJ6WtaJ541hTLERB-202" target="exXBrJ6WtaJ541hTLERB-99">
          <mxGeometry width="100" height="100" relative="1" as="geometry">
            <mxPoint x="1040" y="1451" as="sourcePoint" />
            <mxPoint x="730" y="869" as="targetPoint" />
            <Array as="points">
              <mxPoint x="1070" y="1380" />
              <mxPoint x="1330" y="1300" />
            </Array>
          </mxGeometry>
        </mxCell>
        <mxCell id="exXBrJ6WtaJ541hTLERB-154" value="usedInBusiness" style="swimlane;fontStyle=0;childLayout=stackLayout;horizontal=1;startSize=26;fillColor=#e0e0e0;horizontalStack=0;resizeParent=1;resizeParentMax=0;resizeLast=0;collapsible=1;marginBottom=0;swimlaneFillColor=#ffffff;align=center;fontSize=14;" vertex="1" parent="1">
          <mxGeometry x="-10" y="1370" width="190" height="86" as="geometry" />
        </mxCell>
        <mxCell id="exXBrJ6WtaJ541hTLERB-155" value="businessd" style="shape=partialRectangle;top=0;left=0;right=0;bottom=0;align=left;verticalAlign=middle;fillColor=none;spacingLeft=60;spacingRight=4;overflow=hidden;rotatable=0;points=[[0,0.5],[1,0.5]];portConstraint=eastwest;dropTarget=0;fontStyle=5;fontSize=12;" vertex="1" parent="exXBrJ6WtaJ541hTLERB-154">
          <mxGeometry y="26" width="190" height="30" as="geometry" />
        </mxCell>
        <mxCell id="exXBrJ6WtaJ541hTLERB-156" value="FK" style="shape=partialRectangle;fontStyle=1;top=0;left=0;bottom=0;fillColor=none;align=left;verticalAlign=middle;spacingLeft=4;spacingRight=4;overflow=hidden;rotatable=0;points=[];portConstraint=eastwest;part=1;fontSize=12;" vertex="1" connectable="0" parent="exXBrJ6WtaJ541hTLERB-155">
          <mxGeometry width="56" height="30" as="geometry" />
        </mxCell>
        <mxCell id="exXBrJ6WtaJ541hTLERB-157" value="articleId" style="shape=partialRectangle;top=0;left=0;right=0;bottom=1;align=left;verticalAlign=middle;fillColor=none;spacingLeft=60;spacingRight=4;overflow=hidden;rotatable=0;points=[[0,0.5],[1,0.5]];portConstraint=eastwest;dropTarget=0;fontStyle=5;fontSize=12;" vertex="1" parent="exXBrJ6WtaJ541hTLERB-154">
          <mxGeometry y="56" width="190" height="30" as="geometry" />
        </mxCell>
        <mxCell id="exXBrJ6WtaJ541hTLERB-158" value="FK" style="shape=partialRectangle;fontStyle=1;top=0;left=0;bottom=0;fillColor=none;align=left;verticalAlign=middle;spacingLeft=4;spacingRight=4;overflow=hidden;rotatable=0;points=[];portConstraint=eastwest;part=1;fontSize=12;" vertex="1" connectable="0" parent="exXBrJ6WtaJ541hTLERB-157">
          <mxGeometry width="56" height="30" as="geometry" />
        </mxCell>
        <mxCell id="exXBrJ6WtaJ541hTLERB-159" value="" style="edgeStyle=elbowEdgeStyle;fontSize=12;html=1;endArrow=ERoneToMany;exitX=1;exitY=0.5;exitDx=0;exitDy=0;entryX=0;entryY=0.5;entryDx=0;entryDy=0;" edge="1" parent="1" source="exXBrJ6WtaJ541hTLERB-157" target="exXBrJ6WtaJ541hTLERB-202">
          <mxGeometry width="100" height="100" relative="1" as="geometry">
            <mxPoint x="40" y="1049" as="sourcePoint" />
            <mxPoint x="-150" y="1001" as="targetPoint" />
            <Array as="points">
              <mxPoint x="490" y="1430" />
              <mxPoint x="250" y="1469" />
              <mxPoint x="220" y="1480" />
            </Array>
          </mxGeometry>
        </mxCell>
        <mxCell id="exXBrJ6WtaJ541hTLERB-160" value="" style="edgeStyle=elbowEdgeStyle;fontSize=12;html=1;endArrow=ERmandOne;entryX=1;entryY=0.5;entryDx=0;entryDy=0;exitX=0;exitY=0.5;exitDx=0;exitDy=0;" edge="1" parent="1" source="exXBrJ6WtaJ541hTLERB-157" target="exXBrJ6WtaJ541hTLERB-189">
          <mxGeometry width="100" height="100" relative="1" as="geometry">
            <mxPoint x="310" y="1255" as="sourcePoint" />
            <mxPoint x="230" y="1049" as="targetPoint" />
            <Array as="points">
              <mxPoint x="-210" y="1150" />
            </Array>
          </mxGeometry>
        </mxCell>
        <mxCell id="exXBrJ6WtaJ541hTLERB-161" value="hasPower" style="swimlane;fontStyle=0;childLayout=stackLayout;horizontal=1;startSize=26;fillColor=#e0e0e0;horizontalStack=0;resizeParent=1;resizeParentMax=0;resizeLast=0;collapsible=1;marginBottom=0;swimlaneFillColor=#ffffff;align=center;fontSize=14;" vertex="1" parent="1">
          <mxGeometry x="-540" y="250" width="190" height="86" as="geometry" />
        </mxCell>
        <mxCell id="exXBrJ6WtaJ541hTLERB-162" value="powerId" style="shape=partialRectangle;top=0;left=0;right=0;bottom=0;align=left;verticalAlign=middle;fillColor=none;spacingLeft=60;spacingRight=4;overflow=hidden;rotatable=0;points=[[0,0.5],[1,0.5]];portConstraint=eastwest;dropTarget=0;fontStyle=5;fontSize=12;" vertex="1" parent="exXBrJ6WtaJ541hTLERB-161">
          <mxGeometry y="26" width="190" height="30" as="geometry" />
        </mxCell>
        <mxCell id="exXBrJ6WtaJ541hTLERB-163" value="FK" style="shape=partialRectangle;fontStyle=1;top=0;left=0;bottom=0;fillColor=none;align=left;verticalAlign=middle;spacingLeft=4;spacingRight=4;overflow=hidden;rotatable=0;points=[];portConstraint=eastwest;part=1;fontSize=12;" vertex="1" connectable="0" parent="exXBrJ6WtaJ541hTLERB-162">
          <mxGeometry width="56" height="30" as="geometry" />
        </mxCell>
        <mxCell id="exXBrJ6WtaJ541hTLERB-164" value="roleId" style="shape=partialRectangle;top=0;left=0;right=0;bottom=1;align=left;verticalAlign=middle;fillColor=none;spacingLeft=60;spacingRight=4;overflow=hidden;rotatable=0;points=[[0,0.5],[1,0.5]];portConstraint=eastwest;dropTarget=0;fontStyle=5;fontSize=12;" vertex="1" parent="exXBrJ6WtaJ541hTLERB-161">
          <mxGeometry y="56" width="190" height="30" as="geometry" />
        </mxCell>
        <mxCell id="exXBrJ6WtaJ541hTLERB-165" value="FK" style="shape=partialRectangle;fontStyle=1;top=0;left=0;bottom=0;fillColor=none;align=left;verticalAlign=middle;spacingLeft=4;spacingRight=4;overflow=hidden;rotatable=0;points=[];portConstraint=eastwest;part=1;fontSize=12;" vertex="1" connectable="0" parent="exXBrJ6WtaJ541hTLERB-164">
          <mxGeometry width="56" height="30" as="geometry" />
        </mxCell>
        <mxCell id="exXBrJ6WtaJ541hTLERB-166" value="Role" style="swimlane;fontStyle=0;childLayout=stackLayout;horizontal=1;startSize=26;fillColor=#e0e0e0;horizontalStack=0;resizeParent=1;resizeParentMax=0;resizeLast=0;collapsible=1;marginBottom=0;swimlaneFillColor=#ffffff;align=center;fontSize=14;" vertex="1" parent="1">
          <mxGeometry x="-266" y="74" width="160" height="82" as="geometry" />
        </mxCell>
        <mxCell id="exXBrJ6WtaJ541hTLERB-167" value="roleId" style="shape=partialRectangle;top=0;left=0;right=0;bottom=1;align=left;verticalAlign=middle;fillColor=none;spacingLeft=34;spacingRight=4;overflow=hidden;rotatable=0;points=[[0,0.5],[1,0.5]];portConstraint=eastwest;dropTarget=0;fontStyle=5;fontSize=12;" vertex="1" parent="exXBrJ6WtaJ541hTLERB-166">
          <mxGeometry y="26" width="160" height="30" as="geometry" />
        </mxCell>
        <mxCell id="exXBrJ6WtaJ541hTLERB-168" value="PK" style="shape=partialRectangle;top=0;left=0;bottom=0;fillColor=none;align=left;verticalAlign=middle;spacingLeft=4;spacingRight=4;overflow=hidden;rotatable=0;points=[];portConstraint=eastwest;part=1;fontSize=12;" vertex="1" connectable="0" parent="exXBrJ6WtaJ541hTLERB-167">
          <mxGeometry width="30" height="30" as="geometry" />
        </mxCell>
        <mxCell id="exXBrJ6WtaJ541hTLERB-169" value="name" style="shape=partialRectangle;top=0;left=0;right=0;bottom=0;align=left;verticalAlign=top;fillColor=none;spacingLeft=34;spacingRight=4;overflow=hidden;rotatable=0;points=[[0,0.5],[1,0.5]];portConstraint=eastwest;dropTarget=0;fontSize=12;" vertex="1" parent="exXBrJ6WtaJ541hTLERB-166">
          <mxGeometry y="56" width="160" height="26" as="geometry" />
        </mxCell>
        <mxCell id="exXBrJ6WtaJ541hTLERB-170" value="" style="shape=partialRectangle;top=0;left=0;bottom=0;fillColor=none;align=left;verticalAlign=top;spacingLeft=4;spacingRight=4;overflow=hidden;rotatable=0;points=[];portConstraint=eastwest;part=1;fontSize=12;" vertex="1" connectable="0" parent="exXBrJ6WtaJ541hTLERB-169">
          <mxGeometry width="30" height="26" as="geometry" />
        </mxCell>
        <mxCell id="exXBrJ6WtaJ541hTLERB-171" value="Power" style="swimlane;fontStyle=0;childLayout=stackLayout;horizontal=1;startSize=26;fillColor=#e0e0e0;horizontalStack=0;resizeParent=1;resizeParentMax=0;resizeLast=0;collapsible=1;marginBottom=0;swimlaneFillColor=#ffffff;align=center;fontSize=14;" vertex="1" parent="1">
          <mxGeometry x="-550" y="460" width="160" height="108" as="geometry" />
        </mxCell>
        <mxCell id="exXBrJ6WtaJ541hTLERB-172" value="powerId" style="shape=partialRectangle;top=0;left=0;right=0;bottom=1;align=left;verticalAlign=middle;fillColor=none;spacingLeft=34;spacingRight=4;overflow=hidden;rotatable=0;points=[[0,0.5],[1,0.5]];portConstraint=eastwest;dropTarget=0;fontStyle=5;fontSize=12;" vertex="1" parent="exXBrJ6WtaJ541hTLERB-171">
          <mxGeometry y="26" width="160" height="30" as="geometry" />
        </mxCell>
        <mxCell id="exXBrJ6WtaJ541hTLERB-173" value="PK" style="shape=partialRectangle;top=0;left=0;bottom=0;fillColor=none;align=left;verticalAlign=middle;spacingLeft=4;spacingRight=4;overflow=hidden;rotatable=0;points=[];portConstraint=eastwest;part=1;fontSize=12;" vertex="1" connectable="0" parent="exXBrJ6WtaJ541hTLERB-172">
          <mxGeometry width="30" height="30" as="geometry" />
        </mxCell>
        <mxCell id="exXBrJ6WtaJ541hTLERB-174" value="name" style="shape=partialRectangle;top=0;left=0;right=0;bottom=0;align=left;verticalAlign=top;fillColor=none;spacingLeft=34;spacingRight=4;overflow=hidden;rotatable=0;points=[[0,0.5],[1,0.5]];portConstraint=eastwest;dropTarget=0;fontSize=12;" vertex="1" parent="exXBrJ6WtaJ541hTLERB-171">
          <mxGeometry y="56" width="160" height="26" as="geometry" />
        </mxCell>
        <mxCell id="exXBrJ6WtaJ541hTLERB-175" value="" style="shape=partialRectangle;top=0;left=0;bottom=0;fillColor=none;align=left;verticalAlign=top;spacingLeft=4;spacingRight=4;overflow=hidden;rotatable=0;points=[];portConstraint=eastwest;part=1;fontSize=12;" vertex="1" connectable="0" parent="exXBrJ6WtaJ541hTLERB-174">
          <mxGeometry width="30" height="26" as="geometry" />
        </mxCell>
        <mxCell id="exXBrJ6WtaJ541hTLERB-176" value="type" style="shape=partialRectangle;top=0;left=0;right=0;bottom=0;align=left;verticalAlign=top;fillColor=none;spacingLeft=34;spacingRight=4;overflow=hidden;rotatable=0;points=[[0,0.5],[1,0.5]];portConstraint=eastwest;dropTarget=0;fontSize=12;" vertex="1" parent="exXBrJ6WtaJ541hTLERB-171">
          <mxGeometry y="82" width="160" height="26" as="geometry" />
        </mxCell>
        <mxCell id="exXBrJ6WtaJ541hTLERB-177" value="" style="shape=partialRectangle;top=0;left=0;bottom=0;fillColor=none;align=left;verticalAlign=top;spacingLeft=4;spacingRight=4;overflow=hidden;rotatable=0;points=[];portConstraint=eastwest;part=1;fontSize=12;" vertex="1" connectable="0" parent="exXBrJ6WtaJ541hTLERB-176">
          <mxGeometry width="30" height="26" as="geometry" />
        </mxCell>
        <mxCell id="exXBrJ6WtaJ541hTLERB-178" value="" style="edgeStyle=elbowEdgeStyle;fontSize=12;html=1;endArrow=ERoneToMany;exitX=0;exitY=0.5;exitDx=0;exitDy=0;entryX=0;entryY=0.25;entryDx=0;entryDy=0;" edge="1" parent="1" source="exXBrJ6WtaJ541hTLERB-164" target="exXBrJ6WtaJ541hTLERB-171">
          <mxGeometry width="100" height="100" relative="1" as="geometry">
            <mxPoint x="-580" y="410" as="sourcePoint" />
            <mxPoint x="-480" y="310" as="targetPoint" />
            <Array as="points">
              <mxPoint x="-610" y="400" />
            </Array>
          </mxGeometry>
        </mxCell>
        <mxCell id="exXBrJ6WtaJ541hTLERB-179" value="" style="edgeStyle=elbowEdgeStyle;fontSize=12;html=1;endArrow=ERmandOne;entryX=0;entryY=0.5;entryDx=0;entryDy=0;exitX=0;exitY=0.5;exitDx=0;exitDy=0;" edge="1" parent="1" source="exXBrJ6WtaJ541hTLERB-162" target="exXBrJ6WtaJ541hTLERB-167">
          <mxGeometry width="100" height="100" relative="1" as="geometry">
            <mxPoint x="-400" y="320" as="sourcePoint" />
            <mxPoint x="-300" y="220" as="targetPoint" />
            <Array as="points">
              <mxPoint x="-600" y="210" />
            </Array>
          </mxGeometry>
        </mxCell>
        <mxCell id="exXBrJ6WtaJ541hTLERB-180" value="" style="edgeStyle=orthogonalEdgeStyle;fontSize=12;html=1;endArrow=ERmandOne;entryX=0;entryY=0.5;entryDx=0;entryDy=0;exitX=1;exitY=0.5;exitDx=0;exitDy=0;" edge="1" parent="1" source="exXBrJ6WtaJ541hTLERB-167" target="exXBrJ6WtaJ541hTLERB-26">
          <mxGeometry width="100" height="100" relative="1" as="geometry">
            <mxPoint x="450" y="147" as="sourcePoint" />
            <mxPoint x="-180" y="125" as="targetPoint" />
            <Array as="points">
              <mxPoint x="410" y="115" />
              <mxPoint x="410" y="241" />
            </Array>
          </mxGeometry>
        </mxCell>
        <mxCell id="exXBrJ6WtaJ541hTLERB-181" value="hasRoles" style="swimlane;fontStyle=0;childLayout=stackLayout;horizontal=1;startSize=26;fillColor=#e0e0e0;horizontalStack=0;resizeParent=1;resizeParentMax=0;resizeLast=0;collapsible=1;marginBottom=0;swimlaneFillColor=#ffffff;align=center;fontSize=14;" vertex="1" parent="1">
          <mxGeometry x="-280" y="270" width="190" height="86" as="geometry" />
        </mxCell>
        <mxCell id="exXBrJ6WtaJ541hTLERB-182" value="roleId" style="shape=partialRectangle;top=0;left=0;right=0;bottom=0;align=left;verticalAlign=middle;fillColor=none;spacingLeft=60;spacingRight=4;overflow=hidden;rotatable=0;points=[[0,0.5],[1,0.5]];portConstraint=eastwest;dropTarget=0;fontStyle=5;fontSize=12;" vertex="1" parent="exXBrJ6WtaJ541hTLERB-181">
          <mxGeometry y="26" width="190" height="30" as="geometry" />
        </mxCell>
        <mxCell id="exXBrJ6WtaJ541hTLERB-183" value="FK" style="shape=partialRectangle;fontStyle=1;top=0;left=0;bottom=0;fillColor=none;align=left;verticalAlign=middle;spacingLeft=4;spacingRight=4;overflow=hidden;rotatable=0;points=[];portConstraint=eastwest;part=1;fontSize=12;" vertex="1" connectable="0" parent="exXBrJ6WtaJ541hTLERB-182">
          <mxGeometry width="56" height="30" as="geometry" />
        </mxCell>
        <mxCell id="exXBrJ6WtaJ541hTLERB-184" value="companyId" style="shape=partialRectangle;top=0;left=0;right=0;bottom=1;align=left;verticalAlign=middle;fillColor=none;spacingLeft=60;spacingRight=4;overflow=hidden;rotatable=0;points=[[0,0.5],[1,0.5]];portConstraint=eastwest;dropTarget=0;fontStyle=5;fontSize=12;" vertex="1" parent="exXBrJ6WtaJ541hTLERB-181">
          <mxGeometry y="56" width="190" height="30" as="geometry" />
        </mxCell>
        <mxCell id="exXBrJ6WtaJ541hTLERB-185" value="FK" style="shape=partialRectangle;fontStyle=1;top=0;left=0;bottom=0;fillColor=none;align=left;verticalAlign=middle;spacingLeft=4;spacingRight=4;overflow=hidden;rotatable=0;points=[];portConstraint=eastwest;part=1;fontSize=12;" vertex="1" connectable="0" parent="exXBrJ6WtaJ541hTLERB-184">
          <mxGeometry width="56" height="30" as="geometry" />
        </mxCell>
        <mxCell id="exXBrJ6WtaJ541hTLERB-186" value="" style="edgeStyle=entityRelationEdgeStyle;fontSize=12;html=1;endArrow=ERmandOne;entryX=0;entryY=0.5;entryDx=0;entryDy=0;exitX=1;exitY=0.5;exitDx=0;exitDy=0;" edge="1" parent="1" source="exXBrJ6WtaJ541hTLERB-182" target="exXBrJ6WtaJ541hTLERB-13">
          <mxGeometry width="100" height="100" relative="1" as="geometry">
            <mxPoint x="-270" y="155" as="sourcePoint" />
            <mxPoint x="-180" y="125" as="targetPoint" />
          </mxGeometry>
        </mxCell>
        <mxCell id="exXBrJ6WtaJ541hTLERB-187" value="" style="edgeStyle=elbowEdgeStyle;fontSize=12;html=1;endArrow=ERoneToMany;exitX=0;exitY=0.5;exitDx=0;exitDy=0;entryX=0;entryY=0.5;entryDx=0;entryDy=0;" edge="1" parent="1" source="exXBrJ6WtaJ541hTLERB-182" target="exXBrJ6WtaJ541hTLERB-169">
          <mxGeometry width="100" height="100" relative="1" as="geometry">
            <mxPoint x="-460" y="155" as="sourcePoint" />
            <mxPoint x="-560" y="125" as="targetPoint" />
            <Array as="points">
              <mxPoint x="-330" y="230" />
            </Array>
          </mxGeometry>
        </mxCell>
        <mxCell id="exXBrJ6WtaJ541hTLERB-188" value="Article" style="swimlane;fontStyle=0;childLayout=stackLayout;horizontal=1;startSize=26;fillColor=#e0e0e0;horizontalStack=0;resizeParent=1;resizeParentMax=0;resizeLast=0;collapsible=1;marginBottom=0;swimlaneFillColor=#ffffff;align=center;fontSize=14;" vertex="1" parent="1">
          <mxGeometry x="-413" y="876" width="160" height="186" as="geometry" />
        </mxCell>
        <mxCell id="exXBrJ6WtaJ541hTLERB-189" value="articleId" style="shape=partialRectangle;top=0;left=0;right=0;bottom=1;align=left;verticalAlign=middle;fillColor=none;spacingLeft=34;spacingRight=4;overflow=hidden;rotatable=0;points=[[0,0.5],[1,0.5]];portConstraint=eastwest;dropTarget=0;fontStyle=5;fontSize=12;" vertex="1" parent="exXBrJ6WtaJ541hTLERB-188">
          <mxGeometry y="26" width="160" height="30" as="geometry" />
        </mxCell>
        <mxCell id="exXBrJ6WtaJ541hTLERB-190" value="PK" style="shape=partialRectangle;top=0;left=0;bottom=0;fillColor=none;align=left;verticalAlign=middle;spacingLeft=4;spacingRight=4;overflow=hidden;rotatable=0;points=[];portConstraint=eastwest;part=1;fontSize=12;" vertex="1" connectable="0" parent="exXBrJ6WtaJ541hTLERB-189">
          <mxGeometry width="30" height="30" as="geometry" />
        </mxCell>
        <mxCell id="exXBrJ6WtaJ541hTLERB-191" value="name" style="shape=partialRectangle;top=0;left=0;right=0;bottom=0;align=left;verticalAlign=top;fillColor=none;spacingLeft=34;spacingRight=4;overflow=hidden;rotatable=0;points=[[0,0.5],[1,0.5]];portConstraint=eastwest;dropTarget=0;fontSize=12;" vertex="1" parent="exXBrJ6WtaJ541hTLERB-188">
          <mxGeometry y="56" width="160" height="26" as="geometry" />
        </mxCell>
        <mxCell id="exXBrJ6WtaJ541hTLERB-192" value="" style="shape=partialRectangle;top=0;left=0;bottom=0;fillColor=none;align=left;verticalAlign=top;spacingLeft=4;spacingRight=4;overflow=hidden;rotatable=0;points=[];portConstraint=eastwest;part=1;fontSize=12;" vertex="1" connectable="0" parent="exXBrJ6WtaJ541hTLERB-191">
          <mxGeometry width="30" height="26" as="geometry" />
        </mxCell>
        <mxCell id="exXBrJ6WtaJ541hTLERB-193" value="price" style="shape=partialRectangle;top=0;left=0;right=0;bottom=0;align=left;verticalAlign=top;fillColor=none;spacingLeft=34;spacingRight=4;overflow=hidden;rotatable=0;points=[[0,0.5],[1,0.5]];portConstraint=eastwest;dropTarget=0;fontSize=12;" vertex="1" parent="exXBrJ6WtaJ541hTLERB-188">
          <mxGeometry y="82" width="160" height="26" as="geometry" />
        </mxCell>
        <mxCell id="exXBrJ6WtaJ541hTLERB-194" value="" style="shape=partialRectangle;top=0;left=0;bottom=0;fillColor=none;align=left;verticalAlign=top;spacingLeft=4;spacingRight=4;overflow=hidden;rotatable=0;points=[];portConstraint=eastwest;part=1;fontSize=12;" vertex="1" connectable="0" parent="exXBrJ6WtaJ541hTLERB-193">
          <mxGeometry width="30" height="26" as="geometry" />
        </mxCell>
        <mxCell id="exXBrJ6WtaJ541hTLERB-195" value="description" style="shape=partialRectangle;top=0;left=0;right=0;bottom=0;align=left;verticalAlign=top;fillColor=none;spacingLeft=34;spacingRight=4;overflow=hidden;rotatable=0;points=[[0,0.5],[1,0.5]];portConstraint=eastwest;dropTarget=0;fontSize=12;" vertex="1" parent="exXBrJ6WtaJ541hTLERB-188">
          <mxGeometry y="108" width="160" height="26" as="geometry" />
        </mxCell>
        <mxCell id="exXBrJ6WtaJ541hTLERB-196" value="" style="shape=partialRectangle;top=0;left=0;bottom=0;fillColor=none;align=left;verticalAlign=top;spacingLeft=4;spacingRight=4;overflow=hidden;rotatable=0;points=[];portConstraint=eastwest;part=1;fontSize=12;" vertex="1" connectable="0" parent="exXBrJ6WtaJ541hTLERB-195">
          <mxGeometry width="30" height="26" as="geometry" />
        </mxCell>
        <mxCell id="exXBrJ6WtaJ541hTLERB-197" value="unit" style="shape=partialRectangle;top=0;left=0;right=0;bottom=0;align=left;verticalAlign=top;fillColor=none;spacingLeft=34;spacingRight=4;overflow=hidden;rotatable=0;points=[[0,0.5],[1,0.5]];portConstraint=eastwest;dropTarget=0;fontSize=12;" vertex="1" parent="exXBrJ6WtaJ541hTLERB-188">
          <mxGeometry y="134" width="160" height="26" as="geometry" />
        </mxCell>
        <mxCell id="exXBrJ6WtaJ541hTLERB-198" value="" style="shape=partialRectangle;top=0;left=0;bottom=0;fillColor=none;align=left;verticalAlign=top;spacingLeft=4;spacingRight=4;overflow=hidden;rotatable=0;points=[];portConstraint=eastwest;part=1;fontSize=12;" vertex="1" connectable="0" parent="exXBrJ6WtaJ541hTLERB-197">
          <mxGeometry width="30" height="26" as="geometry" />
        </mxCell>
        <mxCell id="exXBrJ6WtaJ541hTLERB-199" value="isManualArticle" style="shape=partialRectangle;top=0;left=0;right=0;bottom=0;align=left;verticalAlign=top;fillColor=none;spacingLeft=34;spacingRight=4;overflow=hidden;rotatable=0;points=[[0,0.5],[1,0.5]];portConstraint=eastwest;dropTarget=0;fontSize=12;" vertex="1" parent="exXBrJ6WtaJ541hTLERB-188">
          <mxGeometry y="160" width="160" height="26" as="geometry" />
        </mxCell>
        <mxCell id="exXBrJ6WtaJ541hTLERB-200" value="" style="shape=partialRectangle;top=0;left=0;bottom=0;fillColor=none;align=left;verticalAlign=top;spacingLeft=4;spacingRight=4;overflow=hidden;rotatable=0;points=[];portConstraint=eastwest;part=1;fontSize=12;" vertex="1" connectable="0" parent="exXBrJ6WtaJ541hTLERB-199">
          <mxGeometry width="30" height="26" as="geometry" />
        </mxCell>
        <mxCell id="exXBrJ6WtaJ541hTLERB-201" value="Business" style="swimlane;fontStyle=0;childLayout=stackLayout;horizontal=1;startSize=26;fillColor=#e0e0e0;horizontalStack=0;resizeParent=1;resizeParentMax=0;resizeLast=0;collapsible=1;marginBottom=0;swimlaneFillColor=#ffffff;align=center;fontSize=14;" vertex="1" parent="1">
          <mxGeometry x="520" y="1400" width="160" height="82" as="geometry" />
        </mxCell>
        <mxCell id="exXBrJ6WtaJ541hTLERB-202" value="businessId" style="shape=partialRectangle;top=0;left=0;right=0;bottom=1;align=left;verticalAlign=middle;fillColor=none;spacingLeft=34;spacingRight=4;overflow=hidden;rotatable=0;points=[[0,0.5],[1,0.5]];portConstraint=eastwest;dropTarget=0;fontStyle=5;fontSize=12;" vertex="1" parent="exXBrJ6WtaJ541hTLERB-201">
          <mxGeometry y="26" width="160" height="30" as="geometry" />
        </mxCell>
        <mxCell id="exXBrJ6WtaJ541hTLERB-203" value="PK" style="shape=partialRectangle;top=0;left=0;bottom=0;fillColor=none;align=left;verticalAlign=middle;spacingLeft=4;spacingRight=4;overflow=hidden;rotatable=0;points=[];portConstraint=eastwest;part=1;fontSize=12;" vertex="1" connectable="0" parent="exXBrJ6WtaJ541hTLERB-202">
          <mxGeometry width="30" height="30" as="geometry" />
        </mxCell>
        <mxCell id="exXBrJ6WtaJ541hTLERB-204" value="name" style="shape=partialRectangle;top=0;left=0;right=0;bottom=0;align=left;verticalAlign=top;fillColor=none;spacingLeft=34;spacingRight=4;overflow=hidden;rotatable=0;points=[[0,0.5],[1,0.5]];portConstraint=eastwest;dropTarget=0;fontSize=12;" vertex="1" parent="exXBrJ6WtaJ541hTLERB-201">
          <mxGeometry y="56" width="160" height="26" as="geometry" />
        </mxCell>
        <mxCell id="exXBrJ6WtaJ541hTLERB-205" value="" style="shape=partialRectangle;top=0;left=0;bottom=0;fillColor=none;align=left;verticalAlign=top;spacingLeft=4;spacingRight=4;overflow=hidden;rotatable=0;points=[];portConstraint=eastwest;part=1;fontSize=12;" vertex="1" connectable="0" parent="exXBrJ6WtaJ541hTLERB-204">
          <mxGeometry width="30" height="26" as="geometry" />
        </mxCell>
      </root>
    </mxGraphModel>
  </diagram>
</mxfile>
